<?xml version="1.0" encoding="UTF-8" standalone="no"?>
<svg id="Layer_1" data-name="Layer 1" xmlns="http://www.w3.org/2000/svg" viewBox="0 0 1768.58 374.85"><defs><style>.cls-1{fill-rule:evenodd;}</style></defs><title>CirrusAircraft--black</title><path class="cls-1" d="M612.84,152.77l-37.7-19.09a80.6,80.6,0,0,1-6.65,10.47,46.64,46.64,0,0,1-12.86,11.91c-5.63,3.52-12.84,5.41-21.62,5.58a44.77,44.77,0,0,1-13-1.83,34.46,34.46,0,0,1-7.94-3.53c-5.45-2.75-10.51-7.55-15.28-14.37s-8-16.64-9.76-29.49q-.58-4.44-.71-7.79c-.08-2.21-.1-3.91-.1-5.14.31-13,2.28-23.55,6.12-31.67S501,53.87,505.22,50.28c5.56-5,11-8.11,16.41-9.53s9.46-2,12.39-1.84c9.66.46,17.42,2.88,23.15,7.24s9.55,8.1,11.32,11.09c.73,1.07,1.68,2.38,2.62,4a67,67,0,0,1,3.56,6.48L612.05,49.2c-.92-1.76-2.46-4.41-4.67-8a89.3,89.3,0,0,0-8.49-11.69A86.11,86.11,0,0,0,568.71,7.59,91.68,91.68,0,0,0,531.93,0c-12.95.12-24,2.18-33.22,6.08A81.86,81.86,0,0,0,476.06,19.5,89.22,89.22,0,0,0,463,32.71a99.11,99.11,0,0,0-15.63,26.74A107.26,107.26,0,0,0,441,83.7a124.41,124.41,0,0,0-1.14,16.87A142.32,142.32,0,0,0,441,118.26a121.71,121.71,0,0,0,6.32,25.88A92.48,92.48,0,0,0,463,171.5c7.16,8.72,16.9,16.11,29.3,21.85a94,94,0,0,0,23,6.79,107.21,107.21,0,0,0,15.7,1.35c12.41-.24,23.28-2.2,32.64-6s17.09-8,23.23-12.9a97.54,97.54,0,0,0,13.6-12.37c1.33-1.62,3-3.8,5-6.73s4.48-6.42,7.29-10.77Z"/><path class="cls-1" d="M748.83,195.78V5.87H701.54V195.78Z"/><path class="cls-1" d="M959.84,66.42c.32,2.8-.44,6.81-2.2,12.13S951.36,87.93,944,90.86a34.59,34.59,0,0,1-7.63,1.7,42.6,42.6,0,0,1-5.08.21H892V41.1h40.38a42.74,42.74,0,0,1,10.83,1.07,20.62,20.62,0,0,1,11.36,6.67c3.34,3.57,5.1,9.47,5.28,17.58ZM1012,195.78,968.19,120c3.8-1.43,6.91-2.74,9.25-3.77s4.38-2.1,6-3a46.92,46.92,0,0,0,4.61-3.17c1.45-1.2,2.93-2.41,4.31-3.79,3.42-3,6.68-7.55,9.78-13.72s4.81-14.49,5-25a73.92,73.92,0,0,0-2.74-19.81,65.41,65.41,0,0,0-4.8-12c-5.18-8.89-11.36-15.45-18.56-19.57a62.93,62.93,0,0,0-20.51-8.08,91.17,91.17,0,0,0-14.49-1.9c-5.35-.24-10.74-.3-16.13-.27H844.43v189.9h47.86V128h29.62l37.93,67.76Z"/><path class="cls-1" d="M1215.78,66.42c.31,2.8-.44,6.81-2.16,12.13s-6.32,9.38-13.72,12.31a34.23,34.23,0,0,1-7.63,1.7,42,42,0,0,1-5,.21h-39.31V41.1h40.38a42.77,42.77,0,0,1,10.85,1.07,20.69,20.69,0,0,1,11.39,6.67c3.29,3.57,5.08,9.47,5.23,17.58Zm52.12,129.36L1224.07,120c3.88-1.43,7-2.74,9.35-3.77s4.37-2.1,6-3a46.9,46.9,0,0,0,4.49-3.17,40.93,40.93,0,0,0,4.38-3.79c3.46-3,6.71-7.55,9.83-13.72s4.72-14.49,4.93-25c-.14-7.87-1-14.44-2.74-19.81a60.56,60.56,0,0,0-4.75-12c-5.2-8.89-11.33-15.45-18.58-19.57a62.73,62.73,0,0,0-20.54-8.08,90.83,90.83,0,0,0-14.39-1.9c-5.39-.24-10.75-.3-16.17-.27h-85.56v189.9h47.89V128h29.57l38,67.76Z"/><path class="cls-1" d="M1517.15,111.85V5.87h-47.56V124a72.73,72.73,0,0,1-1.31,16,24.59,24.59,0,0,1-7.88,13.8,25.94,25.94,0,0,1-10.9,5.77,51.78,51.78,0,0,1-12.5,1.25,54.46,54.46,0,0,1-10.33-.91,35.29,35.29,0,0,1-15-6.34,18.93,18.93,0,0,1-7.24-10.53c-1.23-4.28-1.76-10.57-1.65-18.81V5.87h-47.88v106a162.51,162.51,0,0,0,2.56,34.7c2.1,11.23,7.46,21.43,16.25,30.7a71.87,71.87,0,0,0,23.67,15.46,95.35,95.35,0,0,0,23,6.24,100.91,100.91,0,0,0,51.33-5.86,74.39,74.39,0,0,0,23.09-14.22c7.26-6.4,13-15.17,17.16-26.09a92.53,92.53,0,0,0,4.29-20.18,206.73,206.73,0,0,0,.81-20.75Z"/><path class="cls-1" d="M1768.54,134.21a55.78,55.78,0,0,0-1.33-12.56,54.92,54.92,0,0,0-2.45-7.91c-3.38-7.63-7.84-13.43-13.39-17.62a56,56,0,0,0-16-8.61,70.59,70.59,0,0,0-11.46-3c-5.21-1.24-10.48-2.42-15.81-3.46s-10.54-2-15.91-2.78c-8.84-1.1-16.07-2.15-21.6-3.1s-10-3-13.12-6.29a16.17,16.17,0,0,1-2.53-3.58,14.62,14.62,0,0,1-1.55-6.4c-.05-4.73,2.31-9.22,6.91-13.43s11.75-6.47,21.38-6.74a60.5,60.5,0,0,1,11,1.13c3.19.66,5.45,1.17,6.73,1.5a67,67,0,0,1,17.41,8.28,108.72,108.72,0,0,1,14.6,12.48l34.94-25c-5.18-4.56-9.2-8-12.1-10.35s-5.82-4.53-8.84-6.58c-13.15-8.4-25.49-13.76-36.7-16s-19.94-3.15-26-2.8c-15.55.27-28.18,2.44-37.78,6.58s-16.78,8.55-21.46,13.31a55,55,0,0,0-10.82,13.84,56.58,56.58,0,0,0-5.62,16.51c-.35,2.83-.63,5.52-.81,8s-.29,4.28-.29,5.22a62.85,62.85,0,0,0,1,10.29,56.24,56.24,0,0,0,1.47,6.32,44.76,44.76,0,0,0,4.28,8.89,43.66,43.66,0,0,0,3.8,5.13,51.45,51.45,0,0,0,16.33,12.91,90.16,90.16,0,0,0,19.46,7c4.45,1.13,9,2.07,13.49,2.83s9,1.49,13.47,2c5.83.73,12,1.53,18.44,2.51a47.78,47.78,0,0,1,16.59,5.39c4.56,2.68,7,6.89,7.18,12.58a16.36,16.36,0,0,1-4.91,11.64,31.91,31.91,0,0,1-9.46,6.4,39.84,39.84,0,0,1-5.81,2.13,46,46,0,0,1-8.94,1.65c-2.72.16-4.71.26-5.89.23a78.8,78.8,0,0,1-24.54-4.09,69.11,69.11,0,0,1-22-11.76,62.69,62.69,0,0,1-5.26-4.83c-1.65-1.7-2.67-2.78-3.1-3.28l-36,22.58c3.56,4.35,6.4,7.52,8.42,9.66a64.64,64.64,0,0,0,6.6,6.24c6.12,5.45,14.95,10.48,26.38,15.27s26.48,7.28,45.18,7.6a150.27,150.27,0,0,0,19.11-1.34,109.77,109.77,0,0,0,15.91-2.93,79.88,79.88,0,0,0,23-9.93q12.15-7.42,20.73-22.1a61,61,0,0,0,6.37-17.64,55.29,55.29,0,0,0,1.16-12Z"/><path d="M523.85,372.07,512,338.74H470.45l-12.19,33.33H442.82l41.52-108.95h15.13l39.66,109ZM491.74,281l-16.66,45.51h32.57Z"/><path d="M637.41,372.07v-109h14.65v109H637.41Z"/><path d="M832.62,372.07l-29.79-46.31H774.74v46.31h-14.2v-109h40.59c3.39,0,7-.16,10.33,0,15.13.61,22.23,5.4,26.86,10.95,2.94,3.56,6.64,10,6.64,20.84,0,4.48-.62,19.3-14.5,26.39-2.63,1.39-5.25,2.48-11.13,3.56l30.56,47.22ZM822,278.24c-5.7-3.4-12.5-3.09-19-3.09H774.75v38.43h29c8.18,0,17.91.16,23.46-7.41a18.28,18.28,0,0,0,3.4-11.27C830.61,291.82,830.31,283.32,822,278.24Z"/><path d="M1049.43,341.2c-2.77,7.1-12.19,24.84-33.64,31.17a61.5,61.5,0,0,1-17.45,2.48c-19.29,0-30.24-7.73-36.12-13.12-7.25-6.79-17.13-20.37-17.13-44.15,0-33.94,20.53-57.25,55.11-57.25,6.16,0,26.69.46,40.12,16.21a53.52,53.52,0,0,1,9.56,17.13l-14.65,2.93a41.9,41.9,0,0,0-4.94-10.19c-3.86-5.39-13.12-14.51-30.25-14.51A42.8,42.8,0,0,0,984.15,275c-22.84,9.73-23,35.81-23,41.81,0,26.24,12.51,38.6,23.15,43.06a42.71,42.71,0,0,0,15.91,2.79,40,40,0,0,0,11.11-1.4,34.39,34.39,0,0,0,20.53-16.66c1.69-3.24,3.07-6.79,4.47-13.89l15.74,1.85a51.91,51.91,0,0,1-2.63,8.65Z"/><path d="M1225.65,372.07l-29.79-46.31h-28.09v46.31h-14.2v-109h40.59c3.39,0,6.95-.16,10.33,0,15.14.61,22.24,5.4,26.86,10.95,2.94,3.56,6.65,10,6.65,20.84,0,4.48-.63,19.3-14.51,26.39-2.62,1.39-5.25,2.48-11.13,3.56l30.56,47.22ZM1215,278.24c-5.7-3.4-12.49-3.09-19-3.09h-28.24v38.43h29c8.18,0,17.9.16,23.46-7.41a18.28,18.28,0,0,0,3.4-11.27C1223.64,291.82,1223.34,283.32,1215,278.24Z"/><path d="M1413.14,372.07l-11.88-33.33h-41.53l-12.19,33.33H1332.1l41.52-108.95h15.14l39.66,109ZM1381,281l-16.66,45.51H1397Z"/><path d="M1542.9,276.07v32.11h51.56v12.65H1542.9v51.23h-14.5V263.11h69.92v13Z"/><path d="M1735,275.77v96.29h-14.5V275.77H1687.8V263.11h79.79v12.66Z"/><path d="M331.12,325.06c0-1.63-.4-1.91-1.13-2.22a2.12,2.12,0,0,0,1.36-2.11,2.47,2.47,0,0,0-2.77-2.48h-4.45V327h1.81V323.6h1.89c1.36,0,1.44.46,1.44,1.67a5.64,5.64,0,0,0,.2,1.77h2v-.23c-.38-.14-.38-.48-.38-1.75Zm-3-2.93H326v-2.36h2.29c1.07,0,1.28.68,1.28,1.15,0,.87-.47,1.21-1.43,1.21Z"/><path d="M327.38,313.64a9.16,9.16,0,1,0,9.17,9.16A9.16,9.16,0,0,0,327.38,313.64Zm0,16.79A7.63,7.63,0,1,1,335,322.8,7.63,7.63,0,0,1,327.38,330.43Z"/><path d="M376.05,274.52c-.57-.57-1.1-1.09-1.55-1.57-4.33-4.66-13.79-12.14-19.45-16.61l-1.33-1c-1.94-1.54-4.56-3.57-7.42-5.78-6.14-4.76-13.1-10.16-17.11-13.56-.63-.53-1.47-1.26-2.38-2.06V44.24l-.19-3c-1.45-11.8-6.84-20.83-16.5-28.3A41.51,41.51,0,0,0,289.3,5.6H168.85c-2.14.06-4.26.19-6.4.32A145.46,145.46,0,0,0,121,16c-2,.88-4,1.75-5.9,2.63A129.47,129.47,0,0,0,89.34,35.3C75.06,24.32,58.23,11.43,52,6.84l-.23-.18C46.24,2.28,40.27.47,34.43,1.38,33,1.6,29.65,2.82,24.6,5c-2.28,1-5.36,2.56-7.32,3.62A57.35,57.35,0,0,0,1,19.85c-1.4,1.74-1.45,2.2.29,3.59a86.56,86.56,0,0,1,8.77,5.89c11.44,10.93,22.3,22.56,33.35,33.81a1.48,1.48,0,0,0,.32.39L56.52,76.65,56,77.88a146.84,146.84,0,0,0-6.95,28.6c-.56,5.08-1,10.23-1.37,15.32-1.18,32.63-.77,65.34-.82,98-1.58-.82-6.29-3-9.26-2.4-3.27.69-10.23,7.59-12.28,9.68L24,228.48l.2.17c-1.2,1.16-1.48,1.95-1.44,2.7s.88,1.12,2.8,2.62c3,2.3,11.45,10.36,21.22,19.31l0,1.26c0,7.72.07,55.28.12,79.37.13,1.26.31,2.44.44,3.7a42.92,42.92,0,0,0,8.16,18.52c.37.43.75.87,1.19,1.31,7.46,8.49,16.73,12.74,28.6,13.68,130.16,0,130.16,0,133.24-.12a183,183,0,0,0,18.63-2.45c14.94-3.39,27.48-9.21,40.16-17.37l5.51-4A144.46,144.46,0,0,0,303.66,326c2.88-4,2.88-4,5.71-8.27a138.77,138.77,0,0,0,11.06-23l.41-1.37a1.83,1.83,0,0,0,.44.25c13.11,8.78,26.54,17.31,39.4,26.53a86.38,86.38,0,0,1,7.4,7.53c1.69,1.45,2.13,1.32,3.58-.38,5.33-7.66,8.72-16.85,10.75-25.81.79-3,2-8.41,1.95-11.25C384.3,282.72,379.34,277.79,376.05,274.52ZM313.63,22.22a4.94,4.94,0,0,1,.86.86c5.09,6.14,6.79,11.94,7.68,19.66v6.33q-3.21,87.62-6.49,175.07c-5.24-4.47-11.87-9.91-18.88-15.65-18.6-15.24-41.75-34.21-53.21-47a4.39,4.39,0,0,1-.84-1.46c1.16-2.12,5.45-7.82,7.07-9.93.09-.12,9.25-12.4,13.43-18.59l.77-1.15c.23-.33.44-.67.67-1,.73-1.1,1.49-2.24,2.26-3.44l.63-1c1.84-2.85,3.81-6,6-9.7a151.11,151.11,0,0,0,9.17-18c.46-1.06.9-2,1.34-3,3.14-6.85,6.33-15.19,8.45-21,1.48-4,4.17-12.3,5.19-16.19.86-3.28,1.55-7.81,1.15-10.3.21-1.8.3-3.77.65-5.56A13.23,13.23,0,0,1,302,35.78c3.84-4.47,7.84-9.17,11.67-13.56Zm-6.21-5.41c.11.06,1.39.77,1.32.89-3.94,7-8.84,14-15.93,18.8-10.47,6.52-22.08,10.86-33.31,16-8.3,4.19-16.32,8.59-24.27,13.36A341,341,0,0,0,203.1,88.82c-7.3,6.34-14.24,12.9-21,19.81l-16.59-13.2c8.73-7.4,15.79-13.3,25.24-20a367.2,367.2,0,0,1,44.47-25.46c4-1.82,7.85-3.58,11.74-5.33,9.6-4,19.32-7.66,28.79-12C286,27.29,296.32,20.5,305,15.69c.57-.33,1.39.55,2.4,1.12Zm-11.6-5.45a5.22,5.22,0,0,1,2.41.56c1.72.7,2.81.94,2.09,1.42-6,4-11.54,7.87-18.22,10.91-11.23,5.11-21,10.26-33.18,13.58a322.66,322.66,0,0,0-55.07,22.65c-3.14,1.82-6.27,3.58-9.35,5.4a175.29,175.29,0,0,0-28.37,22L140.56,75.49l-3-2.42,7.8-6.29c7.47-5.27,15-10.1,23-14.68a293.39,293.39,0,0,1,43.16-18.7c9.28-3,18.5-5.71,28-8,11.6-2.45,26.83-2.83,38.06-6.78,6.25-2.58,12-5.19,18.27-7.23ZM128.41,31.74a265.39,265.39,0,0,1,33.76-13.37c35.63-10.29,120.3-8.76,126-8.92,4.17-.11-14.43,6.11-18.44,6.61-17.14,1.45-34,3.58-50.76,6.65a316.83,316.83,0,0,0-38.95,10.74C159.39,41.34,142.89,50.22,126,63.89c-8-6.37-13.7-10.91-14.42-11.47l-7.26-5.6a184.41,184.41,0,0,1,24.1-15.08Zm-28,89.89,16.62,17c-7.9,20.87-18.29,40.38-25.49,61.42-5,13.11-10.52,25.67-16.7,38.39l-14.34-9.61c-.22-.15-3.18-2.23-6.36-4.38q8.27-17.59,16.57-35.25c5.26-11.48,10.53-22.9,15.67-34.39,2.82-6.84,8.53-21.14,11.36-28C98.69,124.87,99.68,123,100.44,121.63Zm.73,81.71c7.58-17.14,16.93-37.69,25.64-54.7l3.33,3.41c1.84,1.89,7.1,7.69,9.1,10.16l.79,1.06a21,21,0,0,1,1.5,2.78,4.17,4.17,0,0,1-.31,3.1c-9.68,24.76-19.72,49.54-32.65,73-2.82,4.77-2.9,4.9-8.21,13.6-1.24-.84-2.51-1.68-3.57-2.35-6.29-4.53-13.51-9.33-13.57-9.38l-3.41-2.29c7.73-12.64,15.08-25.14,21.36-38.42ZM52.4,194.06c.26-32.1,2.31-66.81,14.35-97.49.54-1.35,1.58-4.27,2.7-6.7L89.56,110.5c-6.06,16.2-11.61,32.64-16.13,49C68.53,176.79,57.38,207,53,215.59c-.21.38-.73-8.06-.62-21.53ZM64.51,269.5c7,6.47,13.11,12.06,16.21,15.08-4.08,6.66-9.71,15.35-15.37,23.83-2.85,4.16-5.59,8.21-8,11.79-2.09,3-4.09,5.87-5.87,8.37,0-1,.56-24.59.82-37.65C54.29,287.46,60.3,276.46,64.51,269.5ZM52.42,282.44c-.06-6.89.37-13.94.56-20.86v-2.66l8.06,7.4Zm251.92,1.68a183.16,183.16,0,0,1-12.41,22.35,147.68,147.68,0,0,1-25,27c-2.33,1.76-4.64,3.57-7,5.32a141.18,141.18,0,0,1-38.52,18.7,148.48,148.48,0,0,1-32.68,5.34q-49.87,1.88-99.74,3.7H84.68a37,37,0,0,1-19.08-7,38,38,0,0,1-8.9-9.79,35.4,35.4,0,0,1-5-14.8c1.74-1.6,13.69-12.77,40.09-41.61,33.22,25.64,40.9,31.48,56.53,43.59,2,1.53,8.87,7.52,10.12,7.67,2.46.3,3.52-2.49,4.23-3.65.84-1.36,1.59-2.61,2.3-3.8.46-.6,1-1.26,1.4-1.91a43.76,43.76,0,0,0,2.59-4.58c.33-.68.64-1.39.88-2,1.58-4.1,1.93-7.77-8-17.68-.76-.76-19-18.37-19.81-19.13l-13.8-13c-3.25-3.08-7.13-6.72-9.11-8.57,3-3.08,10.51-10.9,14.35-14.39,6.59-6,11.58-10,16-13.33s13.38-10,19-14c.68-.41,1.34-.83,2-1.24,6.65-3.77,13.31-8.29,20.64-10.67,7.71-1.94,12-1,18.94,2.83,86.76,57.84,86.76,57.84,94.72,63.23l0,0Zm74.44,17.25a67.71,67.71,0,0,1-2.61,7.08,42.31,42.31,0,0,1-4.58,7.3,2.89,2.89,0,0,1-2.39.77c-5.6-2.54-15.42-10.08-22.64-15.63-2.2-1.69-4.15-3.19-5.65-4.29-5-3.63-12-8.71-18.66-13.55-4.79-3.47-9.41-6.81-13-9.41-8.32-6.05-29.94-21.6-38.86-27.85-10.2-7.14-37.59-27.29-37.91-27.52L203.31,198l-1,.9c-.26.23-.63.55-1,.89-1.7,1.26-4.12,3.19-6.4,5l0,0a43.54,43.54,0,0,0-5.75,4.36,59,59,0,0,1-7.31,5.51c-1.89,1.17-4.57,3.2-7.15,5.17-1.34,1-2.63,2-3.76,2.82l-2.22,1.56c-1.24.85-2.73,1.9-4.43,3.12l-5.32,3.74c-3.46,2.53-6.82,5.09-10.14,7.68l-1.36,1c-4.46,3.42-9.52,7.43-16.21,13.52-4.89,4.46-15.31,15.38-15.75,15.84l-1.22,1.28,1.29,1.21s5.82,5.44,10.39,9.77c3.17,3,13.79,13,13.79,13,6.57,6.34,19.16,18.48,19.75,19.08,9.06,9.06,8.16,11.43,7.19,13.93-.21.54-.49,1.16-.78,1.77a44.38,44.38,0,0,1-2.28,4.05c-.62.89-1.34,1.87-1.87,2.5l-.36.42-11.79-9.69c-.23-.19-23.7-19.59-29.57-24.65l-1.63-1.41c-8.77-7.62-18-15.58-20.31-16.74l-.07,0c15.49-18.67,15.5-18.68,21.19-25.7,8.54-11,16.94-22,25.09-33.18.25-.57.57-1,.13-1.44-.69,0-.69.12-1.18.5-.66.71-.47.92-66.14,80.35-6.39,6.82-11.61,12.26-15.69,16.42,3-4.47,6.48-9.57,10-14.62,3.09-4.14,5.88-7.91,7.78-10.53,1.7-2.41,4.44-6.45,7-10.22,1-1.36,2-2.56,2.76-3.54a3.11,3.11,0,0,0,.65-1.53l1.15-1.7c-1.2-1-1.84-1.66-2.44-2.08-9.78-8.3-20.64-17.47-31.48-26.59-8.93-7.5-18.73-15.11-27-22.07,3.49-3.36,7.34-6.58,8.63-6.86a2.76,2.76,0,0,1,.54,0c2,0,5.12,1.39,6.75,2.33,3.28,1.89,12.77,8.53,12.9,8.62L81.27,247c.07.05,7.24,4.81,13.56,9.37,3.27,2.05,8.57,5.81,8.62,5.85l1.46,1,1-1.48c.12-.18,12.27-18,16.38-24.5,3.25-5.13,10.41-19,12.66-23.5,2.92-5.78,8.29-16.8,10.72-21.82,3.68-7.62,13.58-28.54,13.58-28.54l.56-1.19L149,152.55C15.82,25.39,15.76,25.33,14.53,24.07c-1.74-1.83-3.54-4.25-2.2-6.28a31.17,31.17,0,0,1,8.43-7C22.41,9.9,24.38,8.92,26,8.22c6.69-2.88,8.56-3.31,9-3.37,4.87-.75,9.87.8,14.62,4.57l.33.25c10.82,8,53.76,41.09,59.49,45.53,1.09.84,14,11.13,28.93,23,26.62,21.23,47.06,37.51,48,38.15,3.15,2.26,5.42,2.84,7.07,1.9,3.86-2.23,8.58-7.69,8.71-7.84s10.25-10.56,13.3-13.4L218,94.62c3-2.81,6.67-6.32,9.05-8.34,3.67-3.12,10.31-8.37,13-10.48,2.47-1.93,7.12-5.1,11.22-7.89,2-1.39,3.91-2.67,5.23-3.6,3.6-2.54,11.06-7.29,14.91-9.39,3.36-1.83,9-4.73,12.81-6.66,2.74-1.37,6.7-2.86,8.67-2.68l.46,0c1.36.1,1.81.14,2.11,1.53s-.17,5.53-1.07,9c-1,3.73-3.66,12-5.09,15.87-2.1,5.73-5.25,14-8.35,20.72-.44,1-.89,2-1.36,3s-1,2.17-1.5,3.38c-2.8,5.64-5.77,11.15-8.9,16.62-3.31,5.48-6.18,9.87-8.78,13.73-4.14,6.12-13.25,18.33-13.32,18.43-.63.82-6.21,8.07-7.53,10.68-1.1,2.24,1.36,5,1.47,5.17,11.65,13,34.91,32.09,53.61,47.41,7.59,6.22,14.76,12.09,20.13,16.73,1.18,1,3,2.64,5,4.36,2.7,2.38,5.61,5,7.25,6.34,4.07,3.44,11.06,8.86,17.23,13.65,2.85,2.21,5.45,4.23,7.39,5.76l1.34,1.06c5.58,4.4,14.91,11.77,19.05,16.24.48.52,1,1.08,1.65,1.68,3,3,7.22,7.18,7.28,13.19a57.62,57.62,0,0,1-2.1,11.16Z"/><path d="M241.43,142c-4-.48-4.29-.42-4.88-4.34-2.34-9-12.93-17.94-22.62-19-4.7,0-4.59-1.06-5.29-5.24-1.12-6.76,1-8,6.08-12.76,9.15-7.7,18.48-9.21,29.31-3.43,1,.66,2,1.27,2.95,1.92,10,8.07,14.14,18.19,9.45,30.23a44.22,44.22,0,0,1-6.8,10.71c-2.26,1.74-5.5,1.87-8.2,1.92Zm-57-.27c-3.95-1.89-1-5.52.4-7.43,5.39-7.57,12-14.52,18.12-21.49.18-.2.46-.42.47-.18a14.44,14.44,0,0,1-.65,2.65c-.73,3.63,1.86,5.77-.67,9a219.88,219.88,0,0,1-14.51,16.62,2.51,2.51,0,0,1-2.14,1.07,5.89,5.89,0,0,1-1-.26Zm9,57.58c-1.08,0-.48-1.3.12-2.12a114.84,114.84,0,0,1,17.4-18.87c2.68-2.35,4.77-.85,7.81-2,.3-.11.73-.49,1.15-.43a1.82,1.82,0,0,1-.66,1.15c-7.68,7.55-13.54,14.37-21.48,20.34-1.56,1-2.64,1.88-4.51,2ZM163.35,212c-4.62-1.28-9.79-5.56-10.52-10.44-.24-5.05,5.06-15.77,10.12-17.75,4.6-1.81,11.93,4.56,15.22,8.13,4.12,4.46,4.42,6.84.49,11.26-3.45,3.87-8.48,9.56-14.33,9-.25,0-1-.22-1-.22Z"/><path d="M160.77,172.08c-.22-1.86.43-3.07,1.17-4.79,4.5-8.85,10.2-15.81,16.3-24.69a1.78,1.78,0,0,1,1-.85c.13.4-.16.89-.23,1.2-.62,3.19,1.23,5-.63,8a115.49,115.49,0,0,1-15.56,20.42c-.71.73-1.92,1.55-2.07.48Z"/><path d="M218.84,169.28a2.49,2.49,0,0,1,.67-2.29c4.44-6.08,8.67-11.57,13.74-17.26,2.74-3.07,5.32-.9,8.76-2.27a13.77,13.77,0,0,1,2.48-1.12c.24,0,.08.29-.08.5-5.76,7.3-11.42,15-17.9,21.68-1.64,1.69-4.67,5.27-7.24,1.73a6,6,0,0,1-.43-1Z"/></svg>