<svg xmlns="http://www.w3.org/2000/svg" width="192" height="192" viewBox="0 0 192 192">
    <defs>
        <linearGradient id="a" x1="25.441%" x2="83.118%" y1="5.883%" y2="78.64%">
            <stop offset="0%" stop-color="#00AECE"/>
            <stop offset="16.493%" stop-color="#00AECE" stop-opacity=".596"/>
            <stop offset="100%" stop-color="#00AECE" stop-opacity="0"/>
        </linearGradient>
    </defs>
    <g fill="none" fill-rule="evenodd">
        <path fill="url(#a)" fill-rule="nonzero" d="M91 186.5c52.743 0 95.5-42.757 95.5-95.5S143.743-4.5 91-4.5-4.5 38.257-4.5 91s42.757 95.5 95.5 95.5zm0-9c-47.773 0-86.5-38.727-86.5-86.5S43.227 4.5 91 4.5s86.5 38.727 86.5 86.5-38.727 86.5-86.5 86.5z" transform="translate(5 5)"/>
        <g fill="#FFF" fill-rule="nonzero">
            <path d="M86.615 55C87.38 55 88 54.553 88 54c0-.552-.62-1-1.385-1h-7.23C78.62 53 78 53.448 78 54c0 .553.62 1 1.385 1h7.23z"/>
            <path d="M117.096 101.446c.019.056.039.11.063.164 1.837 4.822 6.524 8.261 12.005 8.261 5.485 0 10.175-3.443 12.01-8.27a12.664 12.664 0 0 0 .827-4.503c-.001-4.174-2.018-8.029-5.422-10.426a7.729 7.729 0 0 0-7.415-5.544 7.729 7.729 0 0 0-7.414 5.543 12.77 12.77 0 0 0-5.056 7.408h-6.046V89.54c0-.784-.64-1.42-1.428-1.42-.788 0-1.428.636-1.428 1.42v4.54H96.155a13.886 13.886 0 0 0-4.657-8.769l16.294-9.731v7.773c0 .784.64 1.42 1.428 1.42.788 0 1.428-.636 1.428-1.42v-4.43h.555c1.837 0 3.332-1.488 3.332-3.316v-4.054l3.562-2.126a12.852 12.852 0 0 0 11.067 6.316c5.485 0 10.175-3.443 12.01-8.27A12.664 12.664 0 0 0 142 62.97c-.001-4.162-2.02-8.031-5.424-10.428a7.729 7.729 0 1 0-14.827.001 12.748 12.748 0 0 0-4.826 14.27l-2.39 1.426v-3.81c0-1.827-1.494-3.315-3.33-3.315h-.556V52.21c0-2.873-2.348-5.21-5.235-5.21H70.196c-.788 0-1.428.636-1.428 1.42 0 .785.64 1.422 1.428 1.422h35.217a2.377 2.377 0 0 1 2.38 2.368v4.357h-51.05V52.21a2.376 2.376 0 0 1 2.38-2.368h4.856c.788 0 1.427-.637 1.427-1.421 0-.785-.64-1.421-1.427-1.421h-4.857c-2.887 0-5.235 2.337-5.235 5.21v8.904h-.556c-1.836 0-3.331 1.488-3.331 3.316v14.966c0 1.828 1.495 3.316 3.331 3.316h.556v3.22h-.556c-1.836 0-3.331 1.488-3.331 3.316v3.6c0 1.828 1.495 3.315 3.331 3.315h.556v1.516h-.556c-1.836 0-3.331 1.487-3.331 3.315v3.6c0 1.828 1.495 3.315 3.331 3.315h.556v30.881c0 2.873 2.348 5.21 5.235 5.21h46.29c2.888 0 5.236-2.337 5.236-5.21v-18.351l7.392 4.414a12.72 12.72 0 0 0-.88 10.886c1.836 4.822 6.523 8.261 12.005 8.261 5.483 0 10.171-3.441 12.007-8.266a12.653 12.653 0 0 0 .828-4.508c0-4.162-2.02-8.03-5.422-10.427a7.728 7.728 0 0 0-7.413-5.542 7.727 7.727 0 0 0-7.414 5.543 12.84 12.84 0 0 0-2.01 1.756l-9.093-5.43V96.92h5.685c0 .06-.003.118-.003.177 0 1.526.27 2.99.766 4.348zM129.164 72.9a9.995 9.995 0 0 1-9.17-6.02 10.063 10.063 0 0 1 5.636-5.369 7.703 7.703 0 0 0 3.534.857c1.273 0 2.475-.311 3.535-.857a10.063 10.063 0 0 1 5.636 5.37 9.994 9.994 0 0 1-9.17 6.02zm9.973-10.152a12.728 12.728 0 0 0-3.968-3.241 7.644 7.644 0 0 0 1.511-3.068 9.874 9.874 0 0 1 2.457 6.309zm-9.973-12.907c2.683 0 4.867 2.172 4.867 4.842 0 2.67-2.184 4.843-4.867 4.843s-4.865-2.173-4.865-4.843 2.182-4.842 4.865-4.842zm-7.516 6.597a7.647 7.647 0 0 0 1.511 3.069 12.723 12.723 0 0 0-3.967 3.241 9.892 9.892 0 0 1 2.456-6.31zm1.515 71.33a12.998 12.998 0 0 0-3.972 3.262 9.89 9.89 0 0 1 2.457-6.335 7.658 7.658 0 0 0 1.515 3.072zm6.001 13.388a9.994 9.994 0 0 1-9.17-6.02 10.06 10.06 0 0 1 5.636-5.368 7.697 7.697 0 0 0 3.535.856c1.275 0 2.477-.31 3.538-.858a10.029 10.029 0 0 1 5.632 5.372 9.994 9.994 0 0 1-9.17 6.018zm9.974-10.127a12.94 12.94 0 0 0-3.973-3.262 7.634 7.634 0 0 0 1.515-3.072 9.88 9.88 0 0 1 2.458 6.334zm-9.974-12.932c2.683 0 4.867 2.172 4.867 4.842 0 2.67-2.184 4.843-4.867 4.843s-4.865-2.173-4.865-4.843 2.182-4.842 4.865-4.842zm-35.76-22.323c0 .068-.004.134-.005.2a14.145 14.145 0 0 0-4.746-3.964 8.268 8.268 0 0 0 1.812-3.733 11.04 11.04 0 0 1 2.939 7.497zm-22.273 0c0-2.81 1.07-5.473 2.939-7.497a8.274 8.274 0 0 0 1.812 3.733 14.148 14.148 0 0 0-4.747 3.965c-.001-.067-.004-.133-.004-.2zm5.632-9.125c0-3.02 2.47-5.478 5.504-5.478 3.035 0 5.505 2.458 5.505 5.478 0 3.02-2.47 5.478-5.505 5.478-3.034 0-5.504-2.457-5.504-5.478zm34.916-11.043a.475.475 0 0 1-.476.474h-.555v-2.206l1.031-.616v2.348zm-.476-11.65c.263 0 .476.211.476.473v5.515l-1.031.616v-6.605h.555zM53.331 79.87a.475.475 0 0 1-.475-.474V64.43c0-.262.213-.474.475-.474h.556V79.87h-.556zm0 13.451a.475.475 0 0 1-.475-.473v-3.6c0-.261.213-.474.475-.474h.556v4.547h-.556zm0 11.746a.475.475 0 0 1-.475-.473v-3.6c0-.261.213-.473.475-.473h.556v4.546h-.556zm52.082 36.091h-46.29a2.376 2.376 0 0 1-2.38-2.368v-4.357h51.05v4.357a2.377 2.377 0 0 1-2.38 2.368zm2.38-9.567h-51.05V59.409h51.05v12.857L89.786 83.018a8.372 8.372 0 0 0-15.56 1.363 13.897 13.897 0 0 0-5.952 11.394c0 1.608.283 3.194.82 4.689.024.082.053.163.091.24a13.886 13.886 0 0 0 2.37 4.027 1.429 1.429 0 0 0 2.011.174 1.416 1.416 0 0 0 .174-2.003c-.72-.853-1.3-1.804-1.731-2.817a11.207 11.207 0 0 1 6.373-6.072 8.342 8.342 0 0 0 3.884.956 8.342 8.342 0 0 0 3.885-.956 11.206 11.206 0 0 1 6.374 6.075 11.153 11.153 0 0 1-10.259 6.77c-1.364 0-2.701-.245-3.973-.729a1.43 1.43 0 0 0-1.844.82 1.42 1.42 0 0 0 .824 1.835c1.599.608 3.28.916 4.993.916a13.95 13.95 0 0 0 7.132-1.95l18.393 10.984v12.857zm0-16.171l-15.937-9.517a13.96 13.96 0 0 0 3.502-5.217 13.778 13.778 0 0 0 .85-3.765h11.584v18.499zm21.371-8.39a9.994 9.994 0 0 1-9.17-6.02 10.046 10.046 0 0 1 5.634-5.37 7.704 7.704 0 0 0 3.536.857c1.275 0 2.477-.311 3.537-.857a10.046 10.046 0 0 1 5.634 5.37 9.994 9.994 0 0 1-9.17 6.02zm9.974-10.128a12.97 12.97 0 0 0-3.971-3.263 7.658 7.658 0 0 0 1.514-3.072 9.857 9.857 0 0 1 2.457 6.335zm-9.974-12.932c2.683 0 4.867 2.172 4.867 4.842 0 2.671-2.184 4.843-4.867 4.843s-4.865-2.172-4.865-4.843c0-2.67 2.182-4.842 4.865-4.842zm-7.516 6.598a7.66 7.66 0 0 0 1.514 3.07 12.986 12.986 0 0 0-3.97 3.264 9.887 9.887 0 0 1 2.456-6.334z"/>
        </g>
    </g>
</svg>
