<svg xmlns="http://www.w3.org/2000/svg" width="192" height="192" viewBox="0 0 192 192">
    <defs>
        <linearGradient id="a" x1="25.441%" x2="83.118%" y1="5.883%" y2="78.64%">
            <stop offset="0%" stop-color="#00AECE"/>
            <stop offset="16.493%" stop-color="#00AECE" stop-opacity=".596"/>
            <stop offset="100%" stop-color="#00AECE" stop-opacity="0"/>
        </linearGradient>
    </defs>
    <g fill="none" fill-rule="evenodd">
        <path fill="url(#a)" fill-rule="nonzero" d="M91 186.5c52.743 0 95.5-42.757 95.5-95.5S143.743-4.5 91-4.5-4.5 38.257-4.5 91s42.757 95.5 95.5 95.5zm0-9c-47.773 0-86.5-38.727-86.5-86.5S43.227 4.5 91 4.5s86.5 38.727 86.5 86.5-38.727 86.5-86.5 86.5z" transform="translate(5 5)"/>
        <g fill="#FFF" fill-rule="nonzero" transform="translate(50 50)">
            <path d="M61.457 22.557c.026-.111.069-.31.069-.428v-9.097c0-.838-.684-1.516-1.53-1.516s-1.53.678-1.53 1.516v6.818c-3.373-2.413-7.5-3.785-11.964-3.785h-.133c-3.364 0-6.526.795-9.321 2.242v-6.79c0-.84-.686-1.517-1.53-1.517-.845 0-1.53.678-1.53 1.516v8.742c-4.883 3.746-8.03 9.793-7.988 16.371C26.072 47.786 35.255 57 46.498 57h.133C57.935 57 67.073 47.57 67 36.367a20.345 20.345 0 0 0-5.543-13.81zM46.61 53.967h-.113c-9.565 0-17.377-7.832-17.438-17.324-.063-9.529 7.712-17.546 17.328-17.546h.113c9.565 0 17.376 7.832 17.437 17.325.063 9.528-7.71 17.546-17.327 17.546zM36 0c-1.104 0-2 .67-2 1.5v3c0 .83.896 1.5 2 1.5s2-.67 2-1.5v-3c0-.83-.896-1.5-2-1.5zM60 2c-1.106 0-2 .67-2 1.5v3c0 .83.894 1.5 2 1.5 1.106 0 2-.67 2-1.5v-3c0-.83-.894-1.5-2-1.5zM18 35c-1.104 0-2 .715-2 1.6v12.8c0 .885.896 1.6 2 1.6s2-.715 2-1.6V36.6c0-.885-.896-1.6-2-1.6zM18 26c-1.104 0-2 .67-2 1.5v3c0 .83.896 1.5 2 1.5s2-.67 2-1.5v-3c0-.83-.896-1.5-2-1.5zM78 22c-1.106 0-2 .715-2 1.6v12.8c0 .885.894 1.6 2 1.6 1.106 0 2-.715 2-1.6V23.6c0-.885-.894-1.6-2-1.6zM78 12c-1.106 0-2 .67-2 1.5v3c0 .83.894 1.5 2 1.5 1.106 0 2-.67 2-1.5v-3c0-.83-.894-1.5-2-1.5z"/>
            <path d="M52 40.432l-.01-1.498a4.475 4.475 0 0 0-1.332-3.174c-.853-.843-2.026-1.329-3.176-1.288l-2.985.028h-.01a1.507 1.507 0 0 1-1.492-1.5l-.01-1.503a1.5 1.5 0 0 1 1.485-1.512l1.457-.01c.048.002.09.025.14.025h.01c.05 0 .093-.026.142-.03l4.22-.027c.825-.006 1.49-.652 1.483-1.48A1.472 1.472 0 0 0 50.43 27h-.009l-2.87-.01-.01-1.485C47.537 24.68 46.868 24 46.049 24h-.01a1.507 1.507 0 0 0-1.483 1.52l.009 1.48h-.114c-2.469 0-4.465 2.037-4.45 4.52l.009 1.504c.016 2.472 2.023 4.476 4.48 4.476H47.513c.393 0 .765.135 1.049.413.282.282.44.648.443 1.05l.01 1.493a1.495 1.495 0 0 1-1.483 1.508l-5.972.038a1.498 1.498 0 0 0-1.484 1.508c.005.826.674 1.49 1.493 1.49h.01l2.985-.02.009 1.53c.004.826.673 1.49 1.493 1.49h.009a1.497 1.497 0 0 0 1.484-1.51l-.01-1.529c2.47-.017 4.466-2.046 4.451-4.529z"/>
            <circle cx="36" cy="37" r="2"/>
            <circle cx="56" cy="37" r="2"/>
            <path d="M90.465 59H73.6a4.592 4.592 0 0 0-4.318 3.048h-7.676c-.83 0-1.496.656-1.524 1.475L47.29 60.638a4.695 4.695 0 0 0-2.763.213L32.52 65.584c-1.55.611-2.686 1.852-3.154 3.351L5.92 62.101a4.664 4.664 0 0 0-4.112.731C.659 63.69 0 64.987 0 66.397v3.305a4.44 4.44 0 0 0 2.065 3.74L19.1 84.398c.15.096.317.166.492.206l25.361 5.755c.343.08.696.118 1.047.118.353 0 .704-.038 1.047-.118l13.348-3.043c.277.377.705.637 1.213.637h7.676A4.592 4.592 0 0 0 73.6 91h16.867c.848 0 1.533-.681 1.533-1.524V60.524A1.53 1.53 0 0 0 90.465 59zM59.702 84.347L46.36 87.389a1.605 1.605 0 0 1-.723 0L20.54 81.693 3.73 70.883a1.41 1.41 0 0 1-.664-1.183v-3.305c0-.603.361-.961.578-1.121.404-.3.917-.395 1.41-.247L29.4 72.132c.714 2.1 2.758 3.63 5.16 3.63H46c.846 0 1.533-.681 1.533-1.524s-.687-1.524-1.534-1.524H34.561c-1.302 0-2.362-1-2.362-2.224 0-.906.57-1.718 1.454-2.067l12.006-4.736a1.62 1.62 0 0 1 .954-.074l13.18 2.971-.09 17.763zm9.297.558h-6.133v-19.81h6.133v19.81zm19.933 3.047H73.599a1.53 1.53 0 0 1-1.534-1.523V63.57a1.53 1.53 0 0 1 1.534-1.523h15.333v25.904z"/>
            <path d="M83.4 81h-4.8c-.885 0-1.6.894-1.6 2 0 1.106.715 2 1.6 2h4.8c.885 0 1.6-.894 1.6-2 0-1.106-.715-2-1.6-2z"/>
        </g>
    </g>
</svg>
