<svg xmlns="http://www.w3.org/2000/svg" width="192" height="192" viewBox="0 0 192 192">
    <defs>
        <linearGradient id="a" x1="25.441%" x2="83.118%" y1="5.883%" y2="78.64%">
            <stop offset="0%" stop-color="#00AECE"/>
            <stop offset="16.493%" stop-color="#00AECE" stop-opacity=".596"/>
            <stop offset="100%" stop-color="#00AECE" stop-opacity="0"/>
        </linearGradient>
    </defs>
    <g fill="none" fill-rule="evenodd">
        <path fill="url(#a)" fill-rule="nonzero" d="M91 186.5c52.743 0 95.5-42.757 95.5-95.5S143.743-4.5 91-4.5-4.5 38.257-4.5 91s42.757 95.5 95.5 95.5zm0-9c-47.773 0-86.5-38.727-86.5-86.5S43.227 4.5 91 4.5s86.5 38.727 86.5 86.5-38.727 86.5-86.5 86.5z" transform="translate(5 5)"/>
        <g fill="#FFF" fill-rule="nonzero">
            <path d="M134.33 62.686h-29.046V59.79c0-3.184-2.615-5.79-5.81-5.79H58.81C55.614 54 53 56.606 53 59.79v31.847c0 15.924 15.25 15.924 20.333 15.924.87 0 1.452-.58 1.452-1.448s-.581-1.447-1.452-1.447c-3.196 0-5.81-2.606-5.81-5.79v-.58c.436-3.04 3.05-5.211 6.1-5.211h20.042v2.895h-13.07c-.872 0-1.453.58-1.453 1.448 0 3.33 1.307 6.514 3.485 8.83-.435 1.447-.58 2.75-.58 4.198 0 5.79 3.485 11.002 8.713 13.318 0 .868-.435 2.605-4.357 2.605-4.066 0-7.261 3.185-7.261 7.238v7.238h2.904v-7.238c0-2.316 1.743-4.198 4.067-4.342l7.116 3.474c.581.29 1.307.579 1.888.724v7.382h2.905v-7.382c.726-.145 1.307-.29 1.888-.58l7.116-3.474c2.324.145 4.067 2.027 4.067 4.343V141h2.905v-7.238c0-4.053-3.195-7.238-7.262-7.238-3.921 0-4.357-1.737-4.357-2.606 5.519-2.316 8.86-7.817 8.714-13.752v-1.013c0-2.027-.436-4.053-1.452-5.79h9.73c3.05 0 5.664 2.171 6.1 5.211.29 3.185-2.033 6.08-5.228 6.37h-.581c-.872 0-1.453.578-1.453 1.447 0 .869.581 1.448 1.453 1.448 5.083 0 20.332 0 20.332-15.924v-33.44c.145-3.184-2.469-5.79-5.664-5.79zM73.623 90.19c-4.502 0-8.423 3.33-9.004 7.817-.146 2.171.435 4.342 1.742 6.08-7.116-1.448-10.456-5.357-10.456-12.45V59.79a2.908 2.908 0 0 1 2.904-2.895h40.665a2.908 2.908 0 0 1 2.905 2.895v27.505a2.908 2.908 0 0 1-2.905 2.895H73.623zm8.569 8.685h15.83c5.083 0 9.295 3.764 10.021 8.686h-15.83c-5.083 0-9.295-3.764-10.021-8.686zm18.299 22.438c-.58.145-1.017.724-1.017 1.303v.868c-.145 2.027 1.017 4.053 2.905 4.922l-3.776 1.882a5.323 5.323 0 0 1-4.212 0l-3.63-1.882c1.887-.869 3.05-2.895 2.904-4.922v-.724c0-.579-.436-1.158-1.017-1.302-4.647-1.738-7.697-6.08-7.697-11.002 0-.724 0-1.448.145-2.027 2.034 1.303 4.503 2.027 7.117 2.027h15.975c0 4.922-3.05 9.264-7.697 10.857zm36.744-19.543c0 7.094-3.34 11.002-10.457 12.45 1.307-1.737 1.888-3.909 1.743-6.08-.581-4.488-4.357-7.817-9.005-7.817h-11.763a13.003 13.003 0 0 0-9.73-4.343H96.57v-2.895h2.904c3.195 0 5.81-2.606 5.81-5.79V65.58h29.046a2.908 2.908 0 0 1 2.905 2.895v33.294z"/>
            <path d="M86.667 69.947h-1.445c-.866 0-1.444-.568-1.444-1.42v-4.264c0-2.416-1.878-4.263-4.334-4.263-2.455 0-4.333 1.847-4.333 4.263v4.263c0 .853-.578 1.421-1.444 1.421 0-.852-.578-1.42-1.445-1.42h-5.778c-.866 0-1.444.568-1.444 1.42V85.58c0 .853.578 1.421 1.444 1.421h5.778c.867 0 1.445-.568 1.445-1.421h13c2.455 0 4.333-1.847 4.333-4.263V74.21c0-2.416-1.878-4.264-4.333-4.264zm-15.89 14.21H67.89V71.369h2.889v12.79zm17.334-2.841c0 .852-.578 1.42-1.444 1.42h-13V72.79c2.455 0 4.333-1.847 4.333-4.263v-4.263c0-.852.578-1.42 1.444-1.42.867 0 1.445.568 1.445 1.42v4.263c0 2.416 1.878 4.263 4.333 4.263h1.445c.866 0 1.444.569 1.444 1.422v7.105zM132.556 68h-5.778c-.867 0-1.445.568-1.445 1.421h-13c-2.455 0-4.333 1.847-4.333 4.263v7.105c0 2.416 1.878 4.264 4.333 4.264h1.445c.866 0 1.444.568 1.444 1.42v4.264c0 2.416 1.878 4.263 4.334 4.263 2.455 0 4.333-1.847 4.333-4.263v-4.263c0-.853.578-1.421 1.444-1.421 0 .852.578 1.42 1.445 1.42h5.778c.866 0 1.444-.568 1.444-1.42V69.42c0-.853-.578-1.421-1.444-1.421zm-7.223 14.21c-2.455 0-4.333 1.848-4.333 4.264v4.263c0 .852-.578 1.42-1.444 1.42-.867 0-1.445-.568-1.445-1.42v-4.263c0-2.416-1.878-4.263-4.333-4.263h-1.445c-.866 0-1.444-.569-1.444-1.422v-7.105c0-.852.578-1.42 1.444-1.42h13v9.947zm5.778 1.422h-2.889v-12.79h2.89v12.79zM107 92h6v3h-6zM92.5 61.5V60h-3v1.5H88v3h1.5V66h3v-1.5H94v-3z"/>
        </g>
    </g>
</svg>
