<svg xmlns="http://www.w3.org/2000/svg" width="192" height="192" viewBox="0 0 192 192">
    <defs>
        <linearGradient id="a" x1="25.441%" x2="83.118%" y1="5.883%" y2="78.64%">
            <stop offset="0%" stop-color="#00AECE"/>
            <stop offset="16.493%" stop-color="#00AECE" stop-opacity=".596"/>
            <stop offset="100%" stop-color="#00AECE" stop-opacity="0"/>
        </linearGradient>
    </defs>
    <g fill="none" fill-rule="evenodd">
        <path fill="url(#a)" fill-rule="nonzero" d="M91 186.5c52.743 0 95.5-42.757 95.5-95.5S143.743-4.5 91-4.5-4.5 38.257-4.5 91s42.757 95.5 95.5 95.5zm0-9c-47.773 0-86.5-38.727-86.5-86.5S43.227 4.5 91 4.5s86.5 38.727 86.5 86.5-38.727 86.5-86.5 86.5z" transform="translate(5 5)"/>
        <g fill="#FFF" fill-rule="nonzero">
            <path d="M139.15 93.875v-35.75c0-4.48-3.626-8.125-8.083-8.125H59.933c-4.457 0-8.083 3.645-8.083 8.125V82.5c-2.674 0-4.85 2.187-4.85 4.875v48.75c0 2.688 2.176 4.875 4.85 4.875h35.567c2.674 0 4.85-2.187 4.85-4.875h13.549c1.524 0 2.93-.699 3.854-1.916a4.86 4.86 0 0 0 .825-4.241l-3.179-11.718h9.2v17.875c0 2.688 2.177 4.875 4.85 4.875h17.784c2.674 0 4.85-2.187 4.85-4.875V98.75c0-2.688-2.176-4.875-4.85-4.875zm-50.117 42.25c0 .895-.726 1.625-1.616 1.625H51.85c-.89 0-1.617-.73-1.617-1.625v-3.25h38.8v3.25zm0-6.5h-38.8v-35.75h38.8v35.75zm0-39h-38.8v-3.25c0-.895.726-1.625 1.617-1.625h35.567c.89 0 1.616.73 1.616 1.625v3.25zm18.343 40.198a1.617 1.617 0 0 1-.275 1.413 1.6 1.6 0 0 1-1.285.639h-13.55v-3.25h14.785l.325 1.198zm-15.11-4.448v-8.125h11.699l2.205 8.125H92.267zM116.517 115h-24.25v-9.75h24.25V115zm0-16.25V102h-24.25V87.375c0-2.688-2.175-4.875-4.85-4.875H55.084V58.125c0-2.688 2.176-4.875 4.85-4.875h71.134c2.674 0 4.85 2.187 4.85 4.875v35.75h-14.55c-2.674 0-4.85 2.187-4.85 4.875zm24.25 37.375c0 .895-.725 1.625-1.616 1.625h-17.783c-.891 0-1.617-.73-1.617-1.625v-3.25h21.017v3.25zm0-6.5H119.75V105.25h21.017v24.375zm0-27.625H119.75v-3.25c0-.895.726-1.625 1.617-1.625h17.783c.89 0 1.617.73 1.617 1.625V102z"/>
            <path d="M55.556 117.08l6.467-6.498 2.286 2.298-6.466 6.498zM62.022 121.955l19.4-19.495 2.287 2.297-19.4 19.495zM65.255 107.336l9.7-9.747 2.286 2.297-9.7 9.747zM123.453 117.083l8.082-8.121 2.287 2.297-8.082 8.122zM126.686 123.588l8.082-8.121 2.286 2.297-8.082 8.122zM89.505 78.093l9.7-9.746 2.286 2.297-9.7 9.747zM104.056 74.844l9.7-9.746 2.286 2.297-9.7 9.747zM94.355 84.593l6.466-6.498 2.287 2.298-6.467 6.498zM102.429 65.118l6.483-6.515 2.286 2.298-6.483 6.514zM59 57h3v3h-3zM65 57h3v3h-3zM71 57h3v3h-3z"/>
        </g>
    </g>
</svg>
