<svg xmlns="http://www.w3.org/2000/svg" width="120" height="120" viewBox="0 0 120 120">
    <path fill="#FFF" fill-rule="evenodd" d="M39.304 90.257V74.95H85.34L60.124 50.356h-20.82v-22.01h43.36l-.192-.696-26.82-25.275c-22.153 2.17-39.462 20.74-39.462 43.33 0 10.733 3.92 20.858 10.91 28.751l.592.669-.09.115 11.702 15.017zM14 45.704C14 20.464 34.593 0 60 0s46 20.464 46 45.704c0 10.955-3.895 21.313-10.858 29.494l.033.042L59.719 120 24.837 75.24l.027-.035C17.897 67.023 14 56.663 14 45.705z"/>
</svg>
