<svg xmlns="http://www.w3.org/2000/svg" xmlns:xlink="http://www.w3.org/1999/xlink" width="44" height="43" viewBox="0 0 44 43">
    <defs>
        <linearGradient id="c" x1="50%" x2="50%" y1="0%" y2="99.021%">
            <stop offset="0%" stop-opacity="0"/>
            <stop offset="80%" stop-opacity=".02"/>
            <stop offset="100%" stop-opacity=".04"/>
        </linearGradient>
        <linearGradient id="d" x1="50%" x2="50%" y1="0%" y2="100%">
            <stop offset="0%" stop-color="#FFF" stop-opacity=".12"/>
            <stop offset="20%" stop-color="#FFF" stop-opacity=".06"/>
            <stop offset="100%" stop-color="#FFF" stop-opacity="0"/>
        </linearGradient>
        <circle id="b" cx="14" cy="14.737" r="14"/>
        <filter id="a" width="185.7%" height="185.7%" x="-42.9%" y="-42.9%" filterUnits="objectBoundingBox">
            <feOffset in="SourceAlpha" result="shadowOffsetOuter1"/>
            <feGaussianBlur in="shadowOffsetOuter1" result="shadowBlurOuter1" stdDeviation="4"/>
            <feComposite in="shadowBlurOuter1" in2="SourceAlpha" operator="out" result="shadowBlurOuter1"/>
            <feColorMatrix in="shadowBlurOuter1" values="0 0 0 0 0 0 0 0 0 0 0 0 0 0 0 0 0 0 0.12 0"/>
        </filter>
        <path id="f" d="M2.624 0v7.373H.017c-.198 0 5.302 6.252 5.302 6.133V0H2.624z"/>
        <filter id="e" width="550.5%" height="277.7%" x="-224.4%" y="-88.8%" filterUnits="objectBoundingBox">
            <feOffset in="SourceAlpha" result="shadowOffsetOuter1"/>
            <feGaussianBlur in="shadowOffsetOuter1" result="shadowBlurOuter1" stdDeviation="4"/>
            <feComposite in="shadowBlurOuter1" in2="SourceAlpha" operator="out" result="shadowBlurOuter1"/>
            <feColorMatrix in="shadowBlurOuter1" values="0 0 0 0 0 0 0 0 0 0 0 0 0 0 0 0 0 0 0.12 0"/>
        </filter>
        <path id="h" d="M2.624 0v7.373H.017c-.198 0 5.302 6.252 5.302 6.133V0H2.624z"/>
        <filter id="g" width="550.5%" height="277.7%" x="-224.4%" y="-88.8%" filterUnits="objectBoundingBox">
            <feOffset in="SourceAlpha" result="shadowOffsetOuter1"/>
            <feGaussianBlur in="shadowOffsetOuter1" result="shadowBlurOuter1" stdDeviation="4"/>
            <feComposite in="shadowBlurOuter1" in2="SourceAlpha" operator="out" result="shadowBlurOuter1"/>
            <feColorMatrix in="shadowBlurOuter1" values="0 0 0 0 0 0 0 0 0 0 0 0 0 0 0 0 0 0 0.12 0"/>
        </filter>
    </defs>
    <g fill="none" fill-rule="evenodd">
        <g transform="translate(8 7)">
            <use fill="#000" filter="url(#a)" xlink:href="#b"/>
            <circle cx="14" cy="14.737" r="13.75" fill="#827EB9" stroke="url(#c)" stroke-linejoin="square" stroke-width=".5"/>
            <circle cx="14" cy="14.737" r="13.75" stroke="url(#d)" stroke-linejoin="square" stroke-width=".5"/>
        </g>
        <g transform="translate(15.368 14.86)">
            <use fill="#000" filter="url(#e)" xlink:href="#f"/>
            <path fill="#FFF" stroke="url(#c)" stroke-linejoin="square" stroke-width=".5" d="M2.874.25v7.373H.491c.119.149.274.339.463.564a191.097 191.097 0 0 0 3.695 4.243c.16.179.301.334.42.464V.25H2.874zm2.584 13.052l.002.002-.002-.002z"/>
            <path stroke="url(#d)" stroke-linejoin="square" stroke-width=".5" d="M2.874.25v7.373H.491c.119.149.274.339.463.564a191.097 191.097 0 0 0 3.695 4.243c.16.179.301.334.42.464V.25H2.874zm2.584 13.052l.002.002-.002-.002z"/>
        </g>
        <g transform="rotate(-180 14.316 13.57)">
            <use fill="#000" filter="url(#g)" xlink:href="#h"/>
            <path fill="#FFF" stroke="url(#c)" stroke-linejoin="square" stroke-width=".5" d="M2.874.25v7.373H.491c.119.149.274.339.463.564a191.097 191.097 0 0 0 3.695 4.243c.16.179.301.334.42.464V.25H2.874zm2.584 13.052l.002.002-.002-.002z"/>
            <path stroke="url(#d)" stroke-linejoin="square" stroke-width=".5" d="M2.874.25v7.373H.491c.119.149.274.339.463.564a191.097 191.097 0 0 0 3.695 4.243c.16.179.301.334.42.464V.25H2.874zm2.584 13.052l.002.002-.002-.002z"/>
        </g>
    </g>
</svg>
