<?xml version="1.0" encoding="UTF-8"?>
<svg width="15px" height="14px" viewBox="0 0 15 14" version="1.1" xmlns="http://www.w3.org/2000/svg" xmlns:xlink="http://www.w3.org/1999/xlink">
    <!-- Generator: Sketch 52.2 (67145) - http://www.bohemiancoding.com/sketch -->
    <title>history-clock-button</title>
    <desc>Created with Sketch.</desc>
    <g id="Page-1" stroke="none" stroke-width="1" fill="none" fill-rule="evenodd">
        <g id="Incorrect-Inventory" transform="translate(-1191.000000, -241.000000)" fill="#FFFFFF" fill-rule="nonzero">
            <g id="Group-14" transform="translate(1188.000000, 237.000000)">
                <g id="History">
                    <g id="history-clock-button" transform="translate(3.000000, 4.000000)">
                        <path d="M7.875,0 C5.25,0 2.925,1.4 1.725,3.53684211 L0,1.84210526 L0,6.63157895 L4.875,6.63157895 L2.775,4.56842105 C3.75,2.72631579 5.625,1.47368421 7.875,1.47368421 C10.95,1.47368421 13.5,3.97894737 13.5,7 C13.5,10.0210526 10.95,12.5263158 7.875,12.5263158 C5.4,12.5263158 3.375,10.9789474 2.55,8.84210526 L0.975,8.84210526 C1.8,11.7894737 4.575,14 7.875,14 C11.85,14 15,10.8315789 15,7 C15,3.16842105 11.775,0 7.875,0 Z M7,4 L7,7.87341772 L10.4181818,10 L11,9.01265823 L8.09090909,7.18987342 L8.09090909,4 L7,4 Z" id="Shape"></path>
                    </g>
                </g>
            </g>
        </g>
    </g>
</svg>