<svg xmlns="http://www.w3.org/2000/svg" width="15" height="14" viewBox="0 0 15 14">
    <g fill="#ABD8A5" fill-rule="evenodd">
        <path d="M7.636 1.4c-3.08 0-5.6 2.52-5.6 5.6 0 3.08 2.52 5.6 5.6 5.6 3.08 0 5.6-2.52 5.6-5.6 0-3.08-2.52-5.6-5.6-5.6m0 12.6c-3.85 0-7-3.15-7-7s3.15-7 7-7 7 3.15 7 7-3.15 7-7 7"/>
        <path d="M6.936 9.8c-.21 0-.35-.07-.49-.21l-2.1-2.1a.677.677 0 0 1 0-.98c.28-.28.7-.28.98 0l1.54 1.54 3.01-3.64c.28-.28.7-.35.98-.07.28.28.35.7.07.98l-3.5 4.2c-.07.21-.28.28-.49.28"/>
    </g>
</svg>
