<svg xmlns="http://www.w3.org/2000/svg" width="12" height="16" viewBox="0 0 12 16">
    <path fill="#F16A5E" fill-rule="evenodd" d="M4.185 1.655l.13-.627h3.372l.13.627H4.184zm7.301 0h-2.62L8.608.41A.515.515 0 0 0 8.105 0H3.897a.515.515 0 0 0-.504.41l-.257 1.245H.514a.514.514 0 0 0 0 1.028h10.972a.514.514 0 0 0 0-1.028zm-.861 1.713h-.017a.514.514 0 0 0-.513.498L9.752 14.53a.44.44 0 0 1-.44.44H2.69a.446.446 0 0 1-.441-.456L1.906 3.866A.514.514 0 1 0 .879 3.9l.342 10.632c0 .81.659 1.469 1.469 1.469h6.622c.81 0 1.468-.659 1.467-1.453L11.122 3.9a.514.514 0 0 0-.497-.53zM7.254 13.613c.279 0 .508-.224.513-.504l.172-9.217a.514.514 0 1 0-1.028-.02l-.172 9.218a.514.514 0 0 0 .505.523h.01zm-2.506 0h.01a.514.514 0 0 0 .504-.523l-.171-9.217a.514.514 0 1 0-1.028.019l.171 9.217c.005.28.234.504.514.504z"/>
</svg>
