<svg xmlns="http://www.w3.org/2000/svg" width="96" height="82" viewBox="0 0 96 82">
    <g fill="#CECED2" fill-rule="evenodd">
        <path d="M21.232 29L.662 47.514l2.676 2.972L22.768 33h50.464l19.43 17.486 2.676-2.972L74.768 29z"/>
        <path d="M4 51v25c0 1.103.897 2 2 2h84c1.103 0 2-.897 2-2V51H67.847C66.882 57.223 61.488 62 55 62H41c-6.488 0-11.882-4.777-12.847-11H4zm86 31H6c-3.309 0-6-2.69-6-6V47h32v2c0 4.963 4.037 9 9 9h14c4.963 0 9-4.037 9-9v-2h32v29c0 3.31-2.691 6-6 6zM28.687 1.928l7 11-3.375 2.148-7-11zM68.314 1.925l3.374 2.147-6.999 11-3.374-2.147zM46 13h4V0h-4z"/>
    </g>
</svg>
