<?xml version="1.0" encoding="UTF-8"?>
<svg width="1062px" height="202px" viewBox="0 0 1062 202" version="1.1" xmlns="http://www.w3.org/2000/svg" xmlns:xlink="http://www.w3.org/1999/xlink">
    <!-- Generator: Sketch 52.2 (67145) - http://www.bohemiancoding.com/sketch -->
    <title>Group 7</title>
    <desc>Created with Sketch.</desc>
    <defs>
        <polygon id="path-1" points="0 0.211811765 10.2986985 0.211811765 10.2986985 10.3527529 0 10.3527529"></polygon>
        <polygon id="path-3" points="0.0776597015 0.135317647 10.3761194 0.135317647 10.3761194 10.2823765 0.0776597015 10.2823765"></polygon>
        <path d="M561,168 L561,198" id="path-5"></path>
        <filter x="-0.0%" y="-3.3%" width="150.0%" height="106.7%" filterUnits="objectBoundingBox" id="filter-6">
            <feMorphology radius="0.5" operator="dilate" in="SourceAlpha" result="shadowSpreadOuter1"></feMorphology>
            <feOffset dx="1" dy="0" in="shadowSpreadOuter1" result="shadowOffsetOuter1"></feOffset>
            <feMorphology radius="1" operator="erode" in="SourceAlpha" result="shadowInner"></feMorphology>
            <feOffset dx="1" dy="0" in="shadowInner" result="shadowInner"></feOffset>
            <feComposite in="shadowOffsetOuter1" in2="shadowInner" operator="out" result="shadowOffsetOuter1"></feComposite>
            <feColorMatrix values="0 0 0 0 1   0 0 0 0 1   0 0 0 0 1  0 0 0 1 0" type="matrix" in="shadowOffsetOuter1"></feColorMatrix>
        </filter>
        <path d="M441,168 L441,198" id="path-7"></path>
        <filter x="-0.0%" y="-3.3%" width="150.0%" height="106.7%" filterUnits="objectBoundingBox" id="filter-8">
            <feMorphology radius="0.5" operator="dilate" in="SourceAlpha" result="shadowSpreadOuter1"></feMorphology>
            <feOffset dx="1" dy="0" in="shadowSpreadOuter1" result="shadowOffsetOuter1"></feOffset>
            <feMorphology radius="1" operator="erode" in="SourceAlpha" result="shadowInner"></feMorphology>
            <feOffset dx="1" dy="0" in="shadowInner" result="shadowInner"></feOffset>
            <feComposite in="shadowOffsetOuter1" in2="shadowInner" operator="out" result="shadowOffsetOuter1"></feComposite>
            <feColorMatrix values="0 0 0 0 1   0 0 0 0 1   0 0 0 0 1  0 0 0 1 0" type="matrix" in="shadowOffsetOuter1"></feColorMatrix>
        </filter>
        <path d="M691,168 L691,198" id="path-9"></path>
        <filter x="-0.0%" y="-3.3%" width="150.0%" height="106.7%" filterUnits="objectBoundingBox" id="filter-10">
            <feMorphology radius="0.5" operator="dilate" in="SourceAlpha" result="shadowSpreadOuter1"></feMorphology>
            <feOffset dx="1" dy="0" in="shadowSpreadOuter1" result="shadowOffsetOuter1"></feOffset>
            <feMorphology radius="1" operator="erode" in="SourceAlpha" result="shadowInner"></feMorphology>
            <feOffset dx="1" dy="0" in="shadowInner" result="shadowInner"></feOffset>
            <feComposite in="shadowOffsetOuter1" in2="shadowInner" operator="out" result="shadowOffsetOuter1"></feComposite>
            <feColorMatrix values="0 0 0 0 1   0 0 0 0 1   0 0 0 0 1  0 0 0 1 0" type="matrix" in="shadowOffsetOuter1"></feColorMatrix>
        </filter>
        <path d="M821,168 L821,198" id="path-11"></path>
        <filter x="-0.0%" y="-3.3%" width="150.0%" height="106.7%" filterUnits="objectBoundingBox" id="filter-12">
            <feMorphology radius="0.5" operator="dilate" in="SourceAlpha" result="shadowSpreadOuter1"></feMorphology>
            <feOffset dx="1" dy="0" in="shadowSpreadOuter1" result="shadowOffsetOuter1"></feOffset>
            <feMorphology radius="1" operator="erode" in="SourceAlpha" result="shadowInner"></feMorphology>
            <feOffset dx="1" dy="0" in="shadowInner" result="shadowInner"></feOffset>
            <feComposite in="shadowOffsetOuter1" in2="shadowInner" operator="out" result="shadowOffsetOuter1"></feComposite>
            <feColorMatrix values="0 0 0 0 1   0 0 0 0 1   0 0 0 0 1  0 0 0 1 0" type="matrix" in="shadowOffsetOuter1"></feColorMatrix>
        </filter>
    </defs>
    <g id="Page-1" stroke="none" stroke-width="1" fill="none" fill-rule="evenodd">
        <g id="Damage-inform-customer" transform="translate(-230.000000, -177.000000)">
            <g id="Group-10" transform="translate(165.000000, 130.000000)">
                <g id="Group-7" transform="translate(65.000000, 47.000000)">
                    <rect id="Rectangle-87" fill="#F1F1F1" x="0" y="163" width="977" height="39"></rect>
                    <rect id="Rectangle-2-Copy-9" stroke="#CECED2" stroke-width="0.5" fill="#FFFFFF" x="9.75" y="167.75" width="180.5" height="30.5" rx="6"></rect>
                    <rect id="Rectangle-2-Copy-12" stroke="#CECED2" stroke-width="0.5" fill="#FFFFFF" x="199.75" y="167.75" width="115.5" height="30.5" rx="6"></rect>
                    <rect id="Rectangle-2-Copy-14" stroke="#CECED2" stroke-width="0.5" fill="#FFFFFF" x="322.75" y="167.75" width="108.5" height="30.5" rx="6"></rect>
                    <rect id="Rectangle-2-Copy-15" stroke="#CECED2" stroke-width="0.5" fill="#4A4A49" x="331.75" y="174.75" width="16.5" height="16.5" rx="4"></rect>
                    <g id="arrow-drop-down-copy-3" transform="translate(166.000000, 171.000000)">
                        <polygon id="Shape" fill="#000000" opacity="0.539999962" points="7 10 12 15 17 10"></polygon>
                        <rect id="bounds" x="0" y="0" width="24" height="24"></rect>
                    </g>
                    <g id="arrow-drop-down-copy-4" transform="translate(281.000000, 171.000000)">
                        <polygon id="Shape" fill="#000000" opacity="0.539999962" points="7 10 12 15 17 10"></polygon>
                        <rect id="bounds" x="0" y="0" width="24" height="24"></rect>
                    </g>
                    <text id="Titillium-Web" font-family="TitilliumWeb-SemiBold, Titillium Web" font-size="12" font-weight="500" line-spacing="34" fill="#4A4A49">
                        <tspan x="44" y="181">Titillium Web</tspan>
                    </text>
                    <text id="16-pt" font-family=".AppleSystemUIFont" font-size="12" font-weight="normal" line-spacing="34" fill="#4A4A49">
                        <tspan x="232" y="178">16 pt</tspan>
                    </text>
                    <text id="#4A4A49" font-family=".AppleSystemUIFont" font-size="12" font-weight="normal" line-spacing="34" fill="#4A4A49">
                        <tspan x="355" y="178">#4A4A49</tspan>
                    </text>
                    <rect id="Rectangle-2-Copy-3" stroke-opacity="0.0919950181" stroke="#4A4A49" fill="#CECED2" x="571.5" y="168.5" width="29" height="29" rx="4"></rect>
                    <g id="Group-9" transform="translate(878.000000, 175.000000)">
                        <g id="Group-3" transform="translate(0.000000, 5.511765)">
                            <mask id="mask-2" fill="white">
                                <use xlink:href="#path-1"></use>
                            </mask>
                            <g id="Clip-2"></g>
                            <path d="M0.841743284,7.20004706 L3.20592239,9.52922353 C3.75517612,10.0706353 4.49547463,10.3527529 5.23577313,10.3527529 C5.97607164,10.3527529 6.69248955,10.0706353 7.26562388,9.52922353 L10.2986985,6.54122353 L8.93726567,5.20004706 L5.90442985,8.18828235 C5.5223403,8.56475294 4.92532537,8.56475294 4.54323582,8.18828235 L2.20293731,5.85887059 C1.82084776,5.4824 1.82084776,4.89416471 2.20293731,4.51769412 L5.23577313,1.52945882 L3.8745791,0.211811765 L0.841743284,3.20004706 C-0.280644776,4.30592941 -0.280644776,6.09416471 0.841743284,7.20004706" id="Fill-1" fill="#000000" mask="url(#mask-2)"></path>
                        </g>
                        <g id="Group-6" transform="translate(5.492537, 0.100000)">
                            <mask id="mask-4" fill="white">
                                <use xlink:href="#path-3"></use>
                            </mask>
                            <g id="Clip-5"></g>
                            <path d="M9.53437612,3.29414118 L7.17019701,0.964729412 C6.04757015,-0.141152941 4.23288358,-0.141152941 3.11049552,0.964729412 L0.0776597015,3.95296471 L1.43885373,5.29414118 L4.47168955,2.30590588 C4.8535403,1.92943529 5.45055522,1.92943529 5.83288358,2.30590588 L8.19682388,4.63531765 C8.57915224,5.01178824 8.57915224,5.60002353 8.19682388,5.97649412 L5.14034627,8.9412 L6.5015403,10.2823765 L9.53437612,7.29414118 C10.6567642,6.18825882 10.6567642,4.40002353 9.53437612,3.29414118" id="Fill-4" fill="#000000" mask="url(#mask-4)"></path>
                        </g>
                        <polygon id="Fill-7" fill="#000000" points="4.89468657 9.71675294 9.62280597 5.05816471 10.9737313 6.38922353 6.24561194 11.0478118"></polygon>
                    </g>
                    <rect id="Rectangle-2-Copy-8" stroke-opacity="0.0919950181" stroke="#4A4A49" fill="#CECED2" x="741.5" y="168.5" width="29" height="29" rx="4"></rect>
                    <g id="Icon/Dark/Bullet-List" transform="translate(708.000000, 175.000000)">
                        <rect id="Shape" x="0" y="0" width="16" height="16"></rect>
                        <path d="M4,13 L15,13 L15,15 L4,15 L4,13 Z M2,15 C1.44771525,15 1,14.5522847 1,14 C1,13.4477153 1.44771525,13 2,13 C2.55228475,13 3,13.4477153 3,14 C3,14.5522847 2.55228475,15 2,15 Z M4,9 L15,9 L15,11 L4,11 L4,9 Z M2,11 C1.44771525,11 1,10.5522847 1,10 C1,9.44771525 1.44771525,9 2,9 C2.55228475,9 3,9.44771525 3,10 C3,10.5522847 2.55228475,11 2,11 Z M4,5 L15,5 L15,7 L4,7 L4,5 Z M2,7 C1.44771525,7 1,6.55228475 1,6 C1,5.44771525 1.44771525,5 2,5 C2.55228475,5 3,5.44771525 3,6 C3,6.55228475 2.55228475,7 2,7 Z M4,1 L15,1 L15,3 L4,3 L4,1 Z M2,3 C1.44771525,3 1,2.55228475 1,2 C1,1.44771525 1.44771525,1 2,1 C2.55228475,1 3,1.44771525 3,2 C3,2.55228475 2.55228475,3 2,3 Z" id="Bullet-List" fill="#333333" fill-rule="evenodd"></path>
                    </g>
                    <g id="Icon/Dark/Right-Align" transform="translate(658.000000, 175.000000)">
                        <rect id="Shape" x="0" y="0" width="16" height="16"></rect>
                        <path d="M5,13 L15,13 L15,15 L5,15 L5,13 Z M1,9 L15,9 L15,11 L1,11 L1,9 Z M5,5 L15,5 L15,7 L5,7 L5,5 Z M1,1 L15,1 L15,3 L1,3 L1,1 Z" id="Right-Align" fill="#333333" fill-rule="evenodd"></path>
                    </g>
                    <g id="Icon/Dark/Center-Align" transform="translate(618.000000, 175.000000)">
                        <rect id="Shape" x="0" y="0" width="16" height="16"></rect>
                        <path d="M3,13 L13,13 L13,15 L3,15 L3,13 Z M1,9 L15,9 L15,11 L1,11 L1,9 Z M3,5 L13,5 L13,7 L3,7 L3,5 Z M1,1 L15,1 L15,3 L1,3 L1,1 Z" id="Center-Align" fill="#333333" fill-rule="evenodd"></path>
                    </g>
                    <g id="Icon/Dark/Left-Align" transform="translate(578.000000, 175.000000)">
                        <rect id="Shape" x="0" y="0" width="16" height="16"></rect>
                        <path d="M1,13 L11,13 L11,15 L1,15 L1,13 Z M1,9 L15,9 L15,11 L1,11 L1,9 Z M1,5 L11,5 L11,7 L1,7 L1,5 Z M1,1 L15,1 L15,3 L1,3 L1,1 Z" id="Left-Align" fill="#333333" fill-rule="evenodd"></path>
                    </g>
                    <g id="Icon/Dark/Underline" transform="translate(528.000000, 175.000000)">
                        <rect id="Shape" x="0" y="0" width="16" height="16"></rect>
                        <path d="M1,13 L15,13 L15,15 L1,15 L1,13 Z M5,6 C5,7.65685425 6.34314575,9 8,9 C9.65685425,9 11,7.65685425 11,6 L11,1 L13,1 L13,6 C13,8.76142375 10.7614237,11 8,11 C5.23857625,11 3,8.76142375 3,6 L3,1 L5,1 L5,6 Z" id="Underline" fill="#333333" fill-rule="evenodd"></path>
                    </g>
                    <g id="Line-2" stroke-linecap="square">
                        <use fill="black" fill-opacity="1" filter="url(#filter-6)" xlink:href="#path-5"></use>
                        <use stroke="#CECED2" stroke-width="1" xlink:href="#path-5"></use>
                    </g>
                    <g id="Line-2-Copy-3" stroke-linecap="square">
                        <use fill="black" fill-opacity="1" filter="url(#filter-8)" xlink:href="#path-7"></use>
                        <use stroke="#CECED2" stroke-width="1" xlink:href="#path-7"></use>
                    </g>
                    <g id="Line-2-Copy" stroke-linecap="square">
                        <use fill="black" fill-opacity="1" filter="url(#filter-10)" xlink:href="#path-9"></use>
                        <use stroke="#CECED2" stroke-width="1" xlink:href="#path-9"></use>
                    </g>
                    <g id="Line-2-Copy-2" stroke-linecap="square">
                        <use fill="black" fill-opacity="1" filter="url(#filter-12)" xlink:href="#path-11"></use>
                        <use stroke="#CECED2" stroke-width="1" xlink:href="#path-11"></use>
                    </g>
                    <g id="Icon/Dark/Italic" transform="translate(488.000000, 175.000000)">
                        <rect id="Shape" x="0" y="0" width="16" height="16"></rect>
                        <polygon id="Italic" fill="#333333" fill-rule="evenodd" points="8.05162592 13 11 13 11 15 3 15 3 13 6.00502713 13 8.17623996 3 5 3 5 1 13 1 13 3 10.2228388 3 8.05162592 13"></polygon>
                    </g>
                    <g id="Icon/Dark/Bold" transform="translate(448.000000, 175.000000)">
                        <rect id="Shape" x="0" y="0" width="16" height="16"></rect>
                        <path d="M7,9 L7,12 L8.5,12 C9.32842712,12 10,11.3284271 10,10.5 C10,9.67157288 9.32842712,9 8.5,9 L7,9 Z M11.4198898,7.07581805 C12.3868877,7.90119425 13,9.1289971 13,10.5 C13,12.9852814 10.9852814,15 8.5,15 L4,15 L4,1 L8,1 C10.209139,1 12,2.790861 12,5 C12,5.76009168 11.7879942,6.47066674 11.4198898,7.07581805 Z M7,4 L7,6 L8,6 C8.55228475,6 9,5.55228475 9,5 C9,4.44771525 8.55228475,4 8,4 L7,4 Z" id="Bold" fill="#333333" fill-rule="nonzero"></path>
                    </g>
                    <g id="arrow-forward" opacity="0.980000019" transform="translate(1053.500000, 5.000000) scale(1, -1) translate(-1053.500000, -5.000000) translate(1045.000000, 0.000000)" fill="#ABD8A5">
                        <polygon id="Shape" transform="translate(8.300000, 5.000000) scale(-1, 1) rotate(-90.000000) translate(-8.300000, -5.000000) " points="5 -3 3.6 -1.6 9.2 4 10.2954102 5 9.2 6 3.6 11.6 5 13 13 5"></polygon>
                    </g>
                    <g id="Icon/Dark/Line-Spacing" transform="translate(208.000000, 175.000000)">
                        <rect id="Shape" x="0" y="0" width="16" height="16"></rect>
                        <path d="M6,11 L15,11 L15,13 L6,13 L6,11 Z M6,7 L15,7 L15,9 L6,9 L6,7 Z M6,3 L15,3 L15,5 L6,5 L6,3 Z M4,3 L4,13 L5,13 L3,15 L1,13 L2,13 L2,3 L1,3 L3,1 L5,3 L4,3 Z" id="Line-Spacing" fill="#333333" fill-rule="evenodd"></path>
                    </g>
                    <g id="Icon/Dark/Text" transform="translate(20.000000, 175.000000)">
                        <rect id="Shape" x="0" y="0" width="16" height="16"></rect>
                        <polygon id="Text" fill="#333333" fill-rule="evenodd" points="6.5 13 6.5 3 3 3 3 5 1 5 1 1 15 1 15 5 13 5 13 3 12 3 12.5 3 9.5 3 9.5 13 11.5 13 11.5 15 4.5 15 4.5 13"></polygon>
                    </g>
                    <g id="Icon/Dark/Image" transform="translate(838.000000, 175.000000)">
                        <rect id="Shape" x="0" y="0" width="16" height="16"></rect>
                        <path d="M9,13 L13,13 L9,4 L6.88235294,8.76470588 L6,7 L3,13 L9,13 Z M1,1 L15,1 L15,15 L1,15 L1,1 Z" id="Image" fill="#333333" fill-rule="evenodd"></path>
                    </g>
                    <g id="Icon/Dark/Increase-Indent-" transform="translate(788.000000, 175.000000)">
                        <rect id="Shape" x="0" y="0" width="16" height="16"></rect>
                        <path d="M1,13 L15,13 L15,15 L1,15 L1,13 Z M5,8 L3,10 L3,6 L5,8 Z M7,9 L15,9 L15,11 L7,11 L7,9 Z M7,5 L15,5 L15,7 L7,7 L7,5 Z M1,1 L15,1 L15,3 L1,3 L1,1 Z" id="Increase-Indent-" fill="#333333" fill-rule="evenodd"></path>
                    </g>
                    <g id="Icon/Dark/Decrease-Indent-" transform="translate(748.000000, 175.000000)">
                        <rect id="Shape" x="0" y="0" width="16" height="16"></rect>
                        <path d="M1,13 L15,13 L15,15 L1,15 L1,13 Z M3,8 L5,6 L5,10 L3,8 Z M7,9 L15,9 L15,11 L7,11 L7,9 Z M7,5 L15,5 L15,7 L7,7 L7,5 Z M1,1 L15,1 L15,3 L1,3 L1,1 Z" id="Decrease-Indent-" fill="#333333" fill-rule="evenodd"></path>
                    </g>
                </g>
            </g>
        </g>
    </g>
</svg>