<svg xmlns="http://www.w3.org/2000/svg" width="12" height="11" viewBox="0 0 12 11">
    <path fill="#F16A5E" fill-rule="evenodd" d="M6.008 9.193a.664.664 0 0 1-.66-.672c0-.37.304-.672.673-.672.369 0 .659.303.659.685a.69.69 0 0 1-.672.659m-.172-6.036c.317-.08.633.079.778.369.053.105.066.224.053.33-.027.329-.04.658-.053 1-.026.515-.066 1.042-.092 1.556-.014.158-.014.316-.027.488a.498.498 0 0 1-.5.487.505.505 0 0 1-.501-.474c-.04-.804-.093-1.608-.132-2.412l-.04-.646c0-.316.211-.62.514-.698m6.063 6.3L6.653.376a.754.754 0 0 0-1.304 0L.103 9.456a.753.753 0 0 0 .646 1.134H11.24a.755.755 0 0 0 .659-1.133"/>
</svg>
