<?xml version="1.0" encoding="UTF-8"?>
<svg width="20px" height="20px" viewBox="0 0 20 20" version="1.1" xmlns="http://www.w3.org/2000/svg" xmlns:xlink="http://www.w3.org/1999/xlink">
    <!-- Generator: Sketch 52.2 (67145) - http://www.bohemiancoding.com/sketch -->
    <title>Page 1</title>
    <desc>Created with Sketch.</desc>
    <g id="Warehouse-overview" stroke="none" stroke-width="1" fill="none" fill-rule="evenodd">
        <g id="usage-percentage-details" transform="translate(-906.000000, -429.000000)">
            <g id="table-2" transform="translate(163.000000, 105.000000)">
                <g id="table">
                    <g id="Group-7" transform="translate(0.000000, -0.000000)">
                        <g id="PALLET" transform="translate(14.000000, 236.000000)">
                            <g id="Page-1" transform="translate(729.000000, 88.000000)">
                                <path d="M8,12.7717028 L8,9.22829718 C8,8.61663787 8.57272727,8.06825366 9.36363636,8.00497856 C10.2636364,7.94170346 11,8.49008767 11,9.16502208 L11,12.8349779 C11,13.5099123 10.2636364,14.0582965 9.36363636,13.9950214 C8.57272727,13.9317463 8,13.3831512 8,12.7717028" id="Fill-1" fill="#848483"></path>
                                <path d="M9.36363636,6.99385684 C8.57272727,6.91839984 8,6.26443917 8,5.5350215 L8,5.4595645 C8,4.67984217 8.62727273,4.0258815 9.47272727,4.00072917 C10.3181818,3.97557683 11,4.60438517 11,5.3841075 L11,5.6104785 C11,6.44050551 10.2636364,7.06931384 9.36363636,6.99385684" id="Fill-3" fill="#787878"></path>
                                <g id="Group-7" fill="#6C6C6B">
                                    <path d="M9.64013672,1.67654552 C5.23920474,1.67654552 1.67654552,5.23920474 1.67654552,9.64013672 C1.67654552,14.0410687 5.23920474,17.6037279 9.64013672,17.6037279 C14.0410687,17.6037279 17.6037279,14.0410687 17.6037279,9.64013672 C17.6037279,5.23920474 14.0410687,1.67654552 9.64013672,1.67654552 M9.64013672,19.2802734 C4.3171047,19.2802734 0,14.9631687 0,9.64013672 C0,4.3171047 4.3171047,0 9.64013672,0 C14.9631687,0 19.2802734,4.3171047 19.2802734,9.64013672 C19.2802734,14.9631687 14.9631687,19.2802734 9.64013672,19.2802734" id="Fill-5"></path>
                                </g>
                            </g>
                        </g>
                    </g>
                </g>
            </g>
        </g>
    </g>
</svg>