<svg xmlns="http://www.w3.org/2000/svg" width="14" height="18" viewBox="0 0 14 18">
    <path fill="#FFF" fill-rule="evenodd" d="M0 0v17.889h14V5.213L8.629 0H0zm.778.778h7.389v5.055h5.055v11.278H.778V.778zm8.166.613l3.774 3.665H8.944V1.39zm.632 6.958c-.823 0-1.245.522-1.245 1.155 0 .352.207.768.741 1.093.334.219.51.359.51.644 0 .255-.176.444-.537.444a1.52 1.52 0 0 1-.647-.152l-.11.656c.128.079.435.158.75.158.769 0 1.304-.47 1.304-1.187 0-.417-.194-.812-.714-1.128-.425-.255-.544-.377-.544-.614 0-.206.158-.407.487-.407.218 0 .388.067.497.134l.128-.656c-.118-.073-.364-.14-.62-.14zm-6.01.033l.706 1.917-.735 2.015h.759l.213-.711c.054-.222.121-.459.182-.714h.012c.073.255.134.474.213.701l.25.724h.789l-.778-1.978.736-1.954h-.766l-.195.72-.164.638h-.012c-.067-.218-.116-.425-.182-.628l-.225-.73h-.802zm2.702.003v3.929H8.04v-.647H7.03V8.385h-.762z"/>
</svg>
