<svg width="45" height="62" viewBox="0 0 45 62" fill="none" xmlns="http://www.w3.org/2000/svg">
<path fill-rule="evenodd" clip-rule="evenodd" d="M37 54V61L44 54H37ZM8.41176 51H29.5882C30.3675 51 31 51.6727 31 52.5C31 53.3295 30.3675 54 29.5882 54H8.41176C7.63247 54 7 53.3295 7 52.5C7 51.6727 7.63247 51 8.41176 51V51ZM8.40909 40H36.5909C37.3687 40 38 40.672 38 41.5C38 42.3288 37.3687 43 36.5909 43H8.40909C7.63127 43 7 42.3288 7 41.5C7 40.672 7.63127 40 8.40909 40V40ZM8.40909 29H36.5909C37.3687 29 38 29.6712 38 30.5C38 31.3288 37.3687 32 36.5909 32H8.40909C7.63127 32 7 31.3288 7 30.5C7 29.6712 7.63127 29 8.40909 29V29ZM30.4728 8.00765C31.0286 7.94746 31.6052 8.24698 31.8578 8.75153C32.1097 9.25609 32.0204 9.9321 31.6412 10.3478L21.9514 21.5446C21.4973 22.0625 20.6412 22.1534 20.0916 21.7413L14.5539 17.5424C13.9614 17.1114 13.8181 16.1687 14.2514 15.5746C14.6847 14.9805 15.6156 14.8454 16.1984 15.2905L20.7187 18.7237L29.5648 8.48911C29.7925 8.22038 30.1254 8.04473 30.4728 8.00765V8.00765ZM0 0V62H33.75V52.1365C33.757 51.4496 34.3941 50.7352 35.1562 50.7274H45V0H0Z" fill="#6166AF"/>
</svg>
