<svg xmlns="http://www.w3.org/2000/svg" width="14" height="12" viewBox="0 0 14 12">
    <g fill="#CECED2" fill-rule="evenodd">
        <path d="M1.624 4.446H.786c-.434 0-.786.38-.786.848v4.071c0 .469.352.848.786.848h.838V4.446zM1.624 10.213v.862c0 .447.37.81.825.81h3.958a.817.817 0 0 0 .824-.81v-.862H1.624zM11.526 1.482h-2.71l-.72.728h.72v.162c0 .848.669 1.535 1.494 1.535.824 0 1.493-.687 1.493-1.535v-.89h-.277zM11.803.997H8.751L8.096 0h3.707zM12.94 4.446H12.795L9.039 9.351h3.062v.862H8.253v1.671h5.473v-6.59c0-.468-.352-.848-.787-.848M11.646 4.446H7.732v.002c-.162-.003-.327.07-.467.252L4.14 8.764c-.56.727.435 1.764 1 1.029l2.956-3.844v3.133l3.55-4.636z"/>
    </g>
</svg>
