<svg xmlns="http://www.w3.org/2000/svg" width="13" height="16" viewBox="0 0 13 16">
    <path fill="#665FAF" fill-rule="evenodd" d="M12.025 6.175H.975A.975.975 0 0 0 0 7.15v7.475c0 .538.437.975.975.975h11.05a.975.975 0 0 0 .975-.975V7.15a.975.975 0 0 0-.975-.975zM2.6 11.7a.651.651 0 0 1 0-1.3.651.651 0 0 1 0 1.3zm2.6 0a.651.651 0 0 1 0-1.3.651.651 0 0 1 0 1.3zm2.6 0a.651.651 0 0 1 0-1.3.651.651 0 0 1 0 1.3zm2.6 0a.651.651 0 0 1 0-1.3.651.651 0 0 1 0 1.3zM2.275 5.525V4.222A4.227 4.227 0 0 1 6.497 0h.006a4.227 4.227 0 0 1 4.222 4.222v1.303h-.65V4.222A3.576 3.576 0 0 0 6.503.65h-.006a3.576 3.576 0 0 0-3.572 3.572v1.303h-.65z"/>
</svg>
