<svg xmlns="http://www.w3.org/2000/svg" width="20" height="18" viewBox="0 0 20 18">
    <path fill="#827EB9" fill-rule="evenodd" d="M14.313 8.945a1.435 1.435 0 0 1-1.432-1.43c0-.788.644-1.432 1.432-1.432.787 0 1.43.644 1.43 1.431s-.643 1.431-1.43 1.431m-4.294 0a1.435 1.435 0 0 1-1.431-1.43c0-.788.644-1.432 1.43-1.432.788 0 1.432.644 1.432 1.431s-.644 1.431-1.431 1.431m-4.294 0a1.435 1.435 0 0 1-1.431-1.43c0-.788.644-1.432 1.431-1.432s1.431.644 1.431 1.431-.644 1.431-1.431 1.431M17.998 0H2.04C.895 0 0 .93 0 2.04v10.197c0 1.145.93 2.04 2.04 2.04a.81.81 0 0 1 .823.823v1.503a.801.801 0 0 0 1.288.644l3.864-2.827a.787.787 0 0 1 .465-.143h9.482c1.145 0 2.04-.93 2.04-2.04V2.04C20.038.93 19.107 0 17.998 0"/>
</svg>
