<svg xmlns="http://www.w3.org/2000/svg" width="12" height="10" viewBox="0 0 12 10">
    <g fill="#FFF" fill-rule="evenodd">
        <path d="M2.862 6.277a1.477 1.477 0 1 1 0 2.954 1.477 1.477 0 0 1 0-2.954M9.6 6.277a1.477 1.477 0 1 1 0 2.954 1.477 1.477 0 0 1 0-2.954"/>
        <path d="M12 .97v5.4c0 .184-.046.368-.138.553-.462-1.246-1.8-1.892-3.047-1.43-.784.276-1.338.969-1.523 1.753 0 .046-.046.092-.138.092H5.215c-.092 0-.138-.046-.138-.138V.138c0-.092.046-.138.138-.138h5.862c.508 0 .923.462.923.97M4.154 1.523V5.54c0 .092-.046.138-.139.138H3.97A2.32 2.32 0 0 0 2.862 5.4 2.38 2.38 0 0 0 .508 7.292C.185 7.154 0 6.831 0 6.462V4.154l1.154-2.262c.138-.323.461-.507.83-.507h2.078c.046 0 .092.046.092.138"/>
    </g>
</svg>
