<svg xmlns="http://www.w3.org/2000/svg" width="19" height="14" viewBox="0 0 19 14">
    <g fill="#ABD8A5" fill-rule="evenodd">
        <path d="M11.439 7.55a.777.777 0 0 0 0-1.1L10.11 5.122V.778A.778.778 0 0 0 9.333 0H1.556C.696 0 0 .697 0 1.555v10.89C0 13.302.696 14 1.556 14h7.777c.43 0 .778-.349.778-.778V8.878L11.44 7.55zm-9.883 4.894V1.555h7v3.89c0 .205.081.403.227.55L9.79 7 8.783 8.006a.776.776 0 0 0-.227.55v3.888h-7z"/>
        <path d="M17.111 1.555v10.89h-7V8.877L11.44 7.55a.777.777 0 0 0 0-1.1L10.11 5.122V1.555h7zm-8.328 6.45a.776.776 0 0 0-.227.55v4.667c0 .43.348.778.777.778h7.778c.859 0 1.556-.697 1.556-1.556V1.555C18.667.697 17.97 0 17.11 0H9.333a.778.778 0 0 0-.777.778v4.666c0 .206.081.405.227.55L9.79 7 8.783 8.006zM3.111 4.667h3.111a.778.778 0 0 0 0-1.556h-3.11a.778.778 0 0 0 0 1.556M3.111 10.89h3.111a.778.778 0 0 0 0-1.556h-3.11a.778.778 0 1 0 0 1.555M3.889 7.778H7a.778.778 0 0 0 0-1.556H3.889a.778.778 0 0 0 0 1.556"/>
        <path d="M11.667 4.667h3.11a.778.778 0 1 0 0-1.556h-3.11a.778.778 0 1 0 0 1.556M11.667 10.89h3.11a.778.778 0 1 0 0-1.556h-3.11a.777.777 0 1 0 0 1.555M13.222 7.778h2.334a.778.778 0 1 0 0-1.556h-2.334a.778.778 0 1 0 0 1.556"/>
    </g>
</svg>
