<svg xmlns="http://www.w3.org/2000/svg" width="20" height="20" viewBox="0 0 20 20">
    <g fill="#ABD8A5" fill-rule="evenodd">
        <path d="M8 12.772V9.228c0-.611.573-1.16 1.364-1.223.9-.063 1.636.485 1.636 1.16v3.67c0 .675-.736 1.223-1.636 1.16C8.573 13.932 8 13.383 8 12.772M9.364 6.994C8.573 6.918 8 6.264 8 5.535V5.46c0-.78.627-1.434 1.473-1.46.845-.024 1.527.604 1.527 1.384v.226c0 .83-.736 1.46-1.636 1.384"/>
        <path d="M9.64 1.677A7.96 7.96 0 0 0 1.677 9.64a7.96 7.96 0 0 0 7.963 7.964 7.96 7.96 0 0 0 7.964-7.964A7.96 7.96 0 0 0 9.64 1.677m0 17.603C4.317 19.28 0 14.963 0 9.64S4.317 0 9.64 0s9.64 4.317 9.64 9.64-4.317 9.64-9.64 9.64"/>
    </g>
</svg>
