<svg xmlns="http://www.w3.org/2000/svg" width="12" height="14" viewBox="0 0 12 14">
    <g fill="#FAFAFA" fill-rule="evenodd">
        <path d="M6.768 6.777l-.642.38V14l5.77-3.421V3.737zM5.948 0L.178 3.421l2.318 1.375 5.771-3.421zM9.126 1.883L3.354 5.305l.436.257 2.158 1.28L8.095 5.57l3.624-2.148zM0 10.579L5.77 14l.001-6.842-2.6-1.542v1.827l-.043.082-.057-.133-.057.078-.043-.129-.076.068-.036-.129-.078.055-.045-.133-.068.069-.045-.146-.064.089-.031-.14-.073.092-.044-.139-.051.084-.028-.114V5.12L0 3.736z"/>
    </g>
</svg>
