<?xml version="1.0" encoding="UTF-8"?>
<svg width="14px" height="14px" viewBox="0 0 14 14" version="1.1" xmlns="http://www.w3.org/2000/svg" xmlns:xlink="http://www.w3.org/1999/xlink">
    <!-- Generator: Sketch 53.1 (72631) - https://sketchapp.com -->
    <title>Group</title>
    <desc>Created with Sketch.</desc>
    <g id="Inbound-+-cargoletters" stroke="none" stroke-width="1" fill="none" fill-rule="evenodd">
        <g id="3.2-receipt-detail-storing" transform="translate(-919.000000, -141.000000)" fill="#9FDA9F">
            <g id="Group-13-Copy" transform="translate(895.000000, 128.000000)">
                <g id="Group" transform="translate(24.000000, 13.000000)">
                    <path d="M12,0.9999 C12,0.4479 11.552,-0.0001 11,-0.0001 L3,-0.0001 C2.448,-0.0001 2,0.4479 2,0.9999 L2,1.9999 L12,1.9999 L12,0.9999 Z" id="Fill-1"></path>
                    <path d="M10,6 L12,6 L12,5 L10,5 L10,6 Z M3,13 L11,13 L11,8 L3,8 L3,13 Z M13,3 L1,3 C0.448,3 0,3.448 0,4 L0,10 C0,10.552 0.448,11 1,11 L2,11 L2,13 C2,13.552 2.448,14 3,14 L11,14 C11.552,14 12,13.552 12,13 L12,11 L13,11 C13.552,11 14,10.552 14,10 L14,4 C14,3.448 13.552,3 13,3 L13,3 Z" id="Fill-4"></path>
                    <polygon id="Fill-6" points="4 12 7 12 7 11 4 11"></polygon>
                    <polygon id="Fill-7" points="4 10 10 10 10 9 4 9"></polygon>
                </g>
            </g>
        </g>
    </g>
</svg>