<svg xmlns="http://www.w3.org/2000/svg" xmlns:xlink="http://www.w3.org/1999/xlink" width="15" height="16" viewBox="0 0 15 16">
    <defs>
        <path id="a" d="M0 0h15v16H0z"/>
    </defs>
    <g fill="none" fill-rule="evenodd">
        <g fill="#FFF">
            <path d="M6.43 9.138a.739.739 0 1 1 0 1.478.739.739 0 0 1 0-1.478M9.8 9.138a.738.738 0 1 1 0 1.477.738.738 0 0 1 0-1.477"/>
            <path d="M11 6.485v2.7a.614.614 0 0 1-.07.277 1.18 1.18 0 0 0-1.522-.716c-.393.139-.67.485-.762.877 0 .023-.023.046-.07.046h-.968c-.046 0-.07-.023-.07-.069V6.07c0-.047.024-.07.07-.07h2.93c.254 0 .462.23.462.485M7.077 6.762v2.007c0 .046-.023.07-.07.07h-.022A1.16 1.16 0 0 0 6.43 8.7a1.19 1.19 0 0 0-1.177.946A.436.436 0 0 1 5 9.231V8.077l.577-1.13a.436.436 0 0 1 .415-.255h1.039c.023 0 .046.023.046.07"/>
        </g>
        <g>
            <mask id="b" fill="#fff">
                <use xlink:href="#a"/>
            </mask>
            <path fill="#FFF" stroke="#827EB9" d="M14.03 7.2a.983.983 0 0 0-.972.978c0 3.2-2.47 5.778-5.558 5.778-3.088 0-5.559-2.578-5.559-5.778 0-3.2 2.47-5.778 5.559-5.778 1.324 0 2.734.444 3.706 1.244h-1.059c-.53 0-.97.445-.97.978 0 .534.44.978.97.978h4.412V.978C14.646.444 14.205 0 13.676 0s-.97.444-.97.978v1.244A8.288 8.288 0 0 0 7.5.356C3.352.356 0 3.822 0 8.178 0 12.533 3.352 16 7.5 16c4.147 0 7.5-3.467 7.5-7.822a.983.983 0 0 0-.97-.978" mask="url(#b)"/>
        </g>
    </g>
</svg>
