<svg xmlns="http://www.w3.org/2000/svg" width="19" height="27" viewBox="0 0 19 27">
    <path fill="#6166AF" fill-rule="evenodd" d="M15.622 23.516v3.049l2.956-3.049h-2.956zM3.552 22.21h8.94c.33 0 .597.293.597.653 0 .361-.267.653-.596.653H3.552c-.33 0-.596-.292-.596-.653 0-.36.267-.653.596-.653zm-.001-4.79h11.898c.329 0 .595.292.595.653 0 .36-.266.653-.595.653H3.551c-.329 0-.595-.293-.595-.653 0-.361.266-.654.595-.654zm0-4.791h11.898c.329 0 .595.292.595.653 0 .361-.266.653-.595.653H3.551c-.329 0-.595-.292-.595-.653 0-.36.266-.653.595-.653zm9.315-9.142a.59.59 0 0 1 .585.324.659.659 0 0 1-.091.695L9.268 9.382a.587.587 0 0 1-.785.086L6.145 7.639c-.25-.187-.31-.598-.128-.857a.59.59 0 0 1 .822-.123l1.909 1.495 3.735-4.457a.586.586 0 0 1 .383-.21zM0 0v27h14.25v-4.295c.003-.3.272-.61.594-.614H19V0H0z"/>
</svg>
