<svg xmlns="http://www.w3.org/2000/svg" width="14" height="14" viewBox="0 0 14 14">
    <path fill="#FFF" fill-rule="evenodd" d="M10.532 10.52A5.02 5.02 0 0 1 6.96 12 5.01 5.01 0 0 1 4 11.036c.065-.037.132-.07.188-.125l6.735-6.734c.052-.052.082-.116.117-.177 1.427 1.973 1.268 4.745-.508 6.52M3.468 3.48A5.018 5.018 0 0 1 7.04 2c1.08 0 2.104.341 2.96.964-.065.036-.132.07-.188.124L3.077 9.823c-.052.052-.082.116-.117.177-1.427-1.973-1.268-4.745.508-6.52m8.482-1.43A6.979 6.979 0 0 0 7 0a7 7 0 1 0 4.95 2.05"/>
</svg>
