<svg xmlns="http://www.w3.org/2000/svg" width="12" height="12" viewBox="0 0 12 12">
    <g fill="#FFF" fill-rule="evenodd">
        <path d="M11.054 6.785c.026-.197.388-.488.4-.686.02-.36-.466-1.064-.8-1.2-.53-.214-3.228-.114-3.228-.114-.263-.46.47-1.598.672-2.09.296-.72.246-1.675-.129-2.165-.457-.6-1.296-.64-1.313-.371-.125 1.945-.498 2.485-.997 2.87-.3.23-.561.433-.7.785C4.11 5.98 3.48 6.48 3.12 6.48h-.24v4.92l2.52.468s3.128.297 4.113 0c.31-.092.845-.558.971-.857.072-.17-.028-.576.057-.742.126-.245.658-.552.657-.885 0-.238-.277-.649-.257-.886.02-.237.515-.562.514-.8 0-.249-.433-.666-.4-.913M2.4 11.28a.48.48 0 0 1-.48.48H.48a.48.48 0 0 1-.48-.48V6.72a.48.48 0 0 1 .48-.48h1.44a.48.48 0 0 1 .48.48v4.56z"/>
    </g>
</svg>
