<svg xmlns="http://www.w3.org/2000/svg" width="18.762" height="20" viewBox="0 0 18.762 20"><path d="M19.461,18.217l-4.625-4.951a8.191,8.191,0,0,0,1.841-5.191A7.972,7.972,0,0,0,8.83,0,7.972,7.972,0,0,0,.984,8.075,7.972,7.972,0,0,0,8.83,16.15a7.611,7.611,0,0,0,4.5-1.461l4.66,4.988a1,1,0,0,0,1.447.029A1.076,1.076,0,0,0,19.461,18.217ZM8.83,2.107a5.892,5.892,0,0,1,5.8,5.968,5.892,5.892,0,0,1-5.8,5.968,5.892,5.892,0,0,1-5.8-5.968A5.892,5.892,0,0,1,8.83,2.107Z" transform="translate(-0.984)" fill="#4a4a4a"></path></svg>