<svg width="18" height="14" viewBox="0 0 18 14" fill="none" xmlns="http://www.w3.org/2000/svg"><path d="M3.43237 9.73544C2.2564 9.73544 1.30008 10.6918 1.30008 11.8677C1.30008 13.0437 2.2564 14 3.43237 14C4.60833 14 5.56465 13.0437 5.56465 11.8677C5.56465 10.6918 4.60829 9.73544 3.43237 9.73544ZM3.43237 13.2892C2.64838 13.2892 2.01086 12.6517 2.01086 11.8677C2.01086 11.0837 2.64842 10.4462 3.43237 10.4462C4.21631 10.4462 4.85388 11.0838 4.85388 11.8677C4.85388 12.6517 4.21631 13.2892 3.43237 13.2892Z" fill="#4A4A4A"></path><path d="M13.6199 9.73544C12.444 9.73544 11.4876 10.6918 11.4876 11.8677C11.4876 13.0437 12.444 14 13.6199 14C14.7959 14 15.7522 13.0437 15.7522 11.8677C15.7522 10.6918 14.7959 9.73544 13.6199 9.73544ZM13.6199 13.2892C12.8359 13.2892 12.1984 12.6517 12.1984 11.8677C12.1984 11.0837 12.836 10.4462 13.6199 10.4462C14.4039 10.4462 15.0414 11.0838 15.0414 11.8677C15.0414 12.6517 14.4039 13.2892 13.6199 13.2892Z" fill="#4A4A4A"></path><path d="M17.828 7.76621L14.6296 2.79086C14.5642 2.6892 14.4516 2.62773 14.3307 2.62773H10.4215C10.225 2.62773 10.0662 2.78694 10.0662 2.9831V11.8676C10.0662 12.0641 10.225 12.223 10.4215 12.223H11.8431V11.5122H10.7769V3.33851H14.1367L17.1738 8.06294V11.5123H15.3969V12.223H17.5291C17.7257 12.223 17.8845 12.0642 17.8845 11.8677V7.95845C17.8846 7.89056 17.865 7.82339 17.828 7.76621Z" fill="#4A4A4A"></path><path d="M12.1985 7.24772V4.76006H15.0415V4.04928H11.8431C11.6466 4.04928 11.4877 4.2085 11.4877 4.40465V7.60309C11.4877 7.79961 11.6466 7.95845 11.8431 7.95845H17.1738V7.24768L12.1985 7.24772Z" fill="#4A4A4A"></path><path d="M10.4215 0.140076H0.470846C0.274692 0.140076 0.115479 0.299289 0.115479 0.495443V11.8677C0.115479 12.0642 0.274692 12.223 0.470846 12.223H2.12931V11.5122H0.826255V0.85081H10.0662V11.5122H4.4985V12.223L10.4215 12.223C10.6181 12.223 10.7769 12.0642 10.7769 11.8677V0.495443C10.7769 0.299289 10.6181 0.140076 10.4215 0.140076Z" fill="#4A4A4A"></path><path d="M10.0662 10.0908H6.0385V10.8015H10.0662V10.0908Z" fill="#4A4A4A"></path><path d="M17.5291 10.0908H16.1076V10.8015H17.5291V10.0908Z" fill="#4A4A4A"></path><path d="M10.4215 1.56163H0.115479V2.27241H10.4215V1.56163Z" fill="#4A4A4A"></path><path d="M13.9754 11.5122H13.2646V12.223H13.9754V11.5122Z" fill="#4A4A4A"></path></svg>