<svg width="22" height="20.455" viewBox="0 0 22 20.455"><g transform="translate(0 -5.713)"><path d="M21.964,7.925c-.321-3.535-2.823-6.1-5.954-6.1a5.918,5.918,0,0,0-5.07,2.922A5.7,5.7,0,0,0,5.99,1.826C2.86,1.826.358,4.39.037,7.925a6.289,6.289,0,0,0,.187,2.318A9.942,9.942,0,0,0,3.27,15.326l7.665,6.955,7.8-6.955a9.943,9.943,0,0,0,3.046-5.083,6.3,6.3,0,0,0,.187-2.317Zm-1.011,2.124A9.092,9.092,0,0,1,18.164,14.7l-7.225,6.446L3.839,14.7a9.1,9.1,0,0,1-2.791-4.65A5.5,5.5,0,0,1,.872,8.06l.006-.043C1.153,4.92,3.3,2.672,5.99,2.672a4.96,4.96,0,0,1,4.557,3.18l.39.924.39-.924A5.112,5.112,0,0,1,16.01,2.673c2.687,0,4.837,2.248,5.118,5.385A5.489,5.489,0,0,1,20.953,10.049Z" transform="translate(0 3.887)" fill="#4a4a4a"></path></g></svg>